<?xml version="1.0" encoding="UTF-8"?>
<svg xmlns="http://www.w3.org/2000/svg" xmlns:xlink="http://www.w3.org/1999/xlink" viewBox="0 0 800 355.19">
  <defs>
    <style>
      .cls-1, .cls-2, .cls-3, .cls-4, .cls-5, .cls-6, .cls-7, .cls-8, .cls-9, .cls-10 {
        stroke-width: 0px;
      }

      .cls-1, .cls-11 {
        fill: #13497f;
      }

      .cls-12, .cls-13, .cls-11, .cls-14, .cls-15, .cls-16 {
        stroke-miterlimit: 10;
      }

      .cls-12, .cls-14 {
        fill: none;
      }

      .cls-12, .cls-16 {
        stroke: #43b049;
      }

      .cls-2 {
        fill: url(#radial-gradient-3);
      }

      .cls-2, .cls-3, .cls-4, .cls-7, .cls-8, .cls-10 {
        mix-blend-mode: color-dodge;
        opacity: .3;
      }

      .cls-17 {
        isolation: isolate;
      }

      .cls-3 {
        fill: url(#radial-gradient);
      }

      .cls-13, .cls-11, .cls-14, .cls-15 {
        stroke: #13497f;
      }

      .cls-13, .cls-15, .cls-16 {
        fill: #fff;
      }

      .cls-4 {
        fill: url(#radial-gradient-4);
      }

      .cls-5, .cls-6 {
        fill: #14487f;
      }

      .cls-6 {
        fill-rule: evenodd;
      }

      .cls-7 {
        fill: url(#radial-gradient-5);
      }

      .cls-8 {
        fill: url(#radial-gradient-2);
      }

      .cls-15, .cls-16 {
        stroke-width: 1.25px;
      }

      .cls-9 {
        fill: #43b049;
      }

      .cls-10 {
        fill: url(#radial-gradient-6);
      }
    </style>
    <radialGradient id="radial-gradient" cx="713.97" cy="1084.85" fx="713.97" fy="1084.85" r="20.35" gradientTransform="translate(-187.85 -1136.37) rotate(15.14)" gradientUnits="userSpaceOnUse">
      <stop offset="0" stop-color="#43b049"/>
      <stop offset="0" stop-color="rgba(67, 176, 73, .99)" stop-opacity=".99"/>
      <stop offset=".13" stop-color="rgba(67, 176, 73, .73)" stop-opacity=".73"/>
      <stop offset=".26" stop-color="rgba(67, 176, 73, .51)" stop-opacity=".51"/>
      <stop offset=".39" stop-color="rgba(67, 176, 73, .32)" stop-opacity=".32"/>
      <stop offset=".53" stop-color="rgba(67, 176, 73, .18)" stop-opacity=".18"/>
      <stop offset=".67" stop-color="rgba(67, 176, 73, .08)" stop-opacity=".08"/>
      <stop offset=".82" stop-color="rgba(67, 176, 73, .02)" stop-opacity=".02"/>
      <stop offset="1" stop-color="#43b049" stop-opacity="0"/>
    </radialGradient>
    <radialGradient id="radial-gradient-2" cx="736.25" cy="1199.2" fx="736.25" fy="1199.2" r="20.35" gradientTransform="translate(684.47 1497.39) rotate(-164.86)" gradientUnits="userSpaceOnUse">
      <stop offset="0" stop-color="#13497f"/>
      <stop offset=".15" stop-color="rgba(19, 73, 127, .7)" stop-opacity=".7"/>
      <stop offset=".3" stop-color="rgba(19, 73, 127, .45)" stop-opacity=".45"/>
      <stop offset=".46" stop-color="rgba(19, 73, 127, .25)" stop-opacity=".25"/>
      <stop offset=".62" stop-color="rgba(19, 73, 127, .11)" stop-opacity=".11"/>
      <stop offset=".8" stop-color="rgba(19, 73, 127, .03)" stop-opacity=".03"/>
      <stop offset="1" stop-color="#13497f" stop-opacity="0"/>
    </radialGradient>
    <radialGradient id="radial-gradient-3" cx="984.52" cy="1030.08" fx="984.52" fy="1030.08" r="20.35" gradientTransform="translate(1262.69 1398.98) rotate(-164.86)" gradientUnits="userSpaceOnUse">
      <stop offset="0" stop-color="#43b049"/>
      <stop offset="0" stop-color="rgba(67, 176, 73, .99)" stop-opacity=".99"/>
      <stop offset=".13" stop-color="rgba(67, 176, 73, .73)" stop-opacity=".73"/>
      <stop offset=".26" stop-color="rgba(67, 176, 73, .51)" stop-opacity=".51"/>
      <stop offset=".39" stop-color="rgba(67, 176, 73, .32)" stop-opacity=".32"/>
      <stop offset=".53" stop-color="rgba(67, 176, 73, .18)" stop-opacity=".18"/>
      <stop offset=".67" stop-color="rgba(67, 176, 73, .08)" stop-opacity=".08"/>
      <stop offset=".82" stop-color="rgba(67, 176, 73, .02)" stop-opacity=".02"/>
      <stop offset="1" stop-color="#43b049" stop-opacity="0"/>
    </radialGradient>
    <radialGradient id="radial-gradient-4" cx="1100.77" cy="917.91" fx="1100.77" fy="917.91" r="20.35" gradientTransform="translate(-810.47 1035.19) rotate(-74.86)" gradientUnits="userSpaceOnUse">
      <stop offset="0" stop-color="#43b049"/>
      <stop offset="0" stop-color="rgba(67, 176, 73, .99)" stop-opacity=".99"/>
      <stop offset=".13" stop-color="rgba(67, 176, 73, .73)" stop-opacity=".73"/>
      <stop offset=".26" stop-color="rgba(67, 176, 73, .51)" stop-opacity=".51"/>
      <stop offset=".39" stop-color="rgba(67, 176, 73, .32)" stop-opacity=".32"/>
      <stop offset=".53" stop-color="rgba(67, 176, 73, .18)" stop-opacity=".18"/>
      <stop offset=".67" stop-color="rgba(67, 176, 73, .08)" stop-opacity=".08"/>
      <stop offset=".82" stop-color="rgba(67, 176, 73, .02)" stop-opacity=".02"/>
      <stop offset="1" stop-color="#43b049" stop-opacity="0"/>
    </radialGradient>
    <radialGradient id="radial-gradient-5" cx="1047.86" cy="1001.86" fx="1047.86" fy="1001.86" r="20.35" gradientTransform="translate(1671.08 -555.07) rotate(105.14)" gradientUnits="userSpaceOnUse">
      <stop offset="0" stop-color="#13497f"/>
      <stop offset=".15" stop-color="rgba(19, 73, 127, .7)" stop-opacity=".7"/>
      <stop offset=".3" stop-color="rgba(19, 73, 127, .45)" stop-opacity=".45"/>
      <stop offset=".46" stop-color="rgba(19, 73, 127, .25)" stop-opacity=".25"/>
      <stop offset=".62" stop-color="rgba(19, 73, 127, .11)" stop-opacity=".11"/>
      <stop offset=".8" stop-color="rgba(19, 73, 127, .03)" stop-opacity=".03"/>
      <stop offset="1" stop-color="#13497f" stop-opacity="0"/>
    </radialGradient>
    <radialGradient id="radial-gradient-6" cx="973.7" cy="1016.65" fx="973.7" fy="1016.65" r="20.35" gradientTransform="translate(-160.55 -1138.37) rotate(15.14)" gradientUnits="userSpaceOnUse">
      <stop offset="0" stop-color="#13497f"/>
      <stop offset=".15" stop-color="rgba(19, 73, 127, .7)" stop-opacity=".7"/>
      <stop offset=".3" stop-color="rgba(19, 73, 127, .45)" stop-opacity=".45"/>
      <stop offset=".46" stop-color="rgba(19, 73, 127, .25)" stop-opacity=".25"/>
      <stop offset=".62" stop-color="rgba(19, 73, 127, .11)" stop-opacity=".11"/>
      <stop offset=".8" stop-color="rgba(19, 73, 127, .03)" stop-opacity=".03"/>
      <stop offset="1" stop-color="#13497f" stop-opacity="0"/>
    </radialGradient>
  </defs>
  <g class="cls-17">
    <g id="Layer_1" data-name="Layer 1">
      <g>
        <line class="cls-12" x1="219.05" y1="97.21" x2="298.98" y2="97.21"/>
        <circle class="cls-3" cx="217.98" cy="97.31" r="20.35"/>
        <circle class="cls-9" cx="217.98" cy="97.31" r="4.34"/>
      </g>
      <g>
        <line class="cls-14" x1="285.93" y1="147.61" x2="206" y2="147.61"/>
        <circle class="cls-8" cx="286.99" cy="147.51" r="20.35"/>
        <circle class="cls-1" cx="286.99" cy="147.51" r="4.34"/>
      </g>
      <g>
        <line class="cls-12" x1="580.33" y1="147.61" x2="500.39" y2="147.61"/>
        <circle class="cls-2" cx="581.39" cy="147.51" r="20.35"/>
        <circle class="cls-9" cx="581.39" cy="147.51" r="4.34"/>
      </g>
      <g>
        <line class="cls-12" x1="362.99" y1="211.8" x2="362.99" y2="181.38"/>
        <circle class="cls-4" cx="363.09" cy="212.38" r="20.35"/>
        <circle class="cls-9" cx="363.09" cy="212.38" r="4.34"/>
      </g>
      <g>
        <line class="cls-14" x1="430.4" y1="195.32" x2="430.4" y2="225.74"/>
        <circle class="cls-7" cx="430.31" cy="194.74" r="20.35"/>
        <circle class="cls-1" cx="430.31" cy="194.74" r="4.34"/>
      </g>
      <g>
        <line class="cls-11" x1="514.87" y1="97.21" x2="594.81" y2="97.21"/>
        <circle class="cls-10" cx="513.81" cy="97.31" r="20.35"/>
        <circle class="cls-1" cx="513.81" cy="97.31" r="4.34"/>
      </g>
      <g>
        <path class="cls-1" d="M207.52,26.67c-1.06-.6-1.87-1.45-2.44-2.54-.57-1.09-.85-2.36-.85-3.8s.28-2.71.85-3.8c.57-1.09,1.38-1.94,2.44-2.53,1.06-.59,2.3-.89,3.73-.89.93,0,1.83.14,2.68.43.85.29,1.55.68,2.1,1.19l-1,2.22c-.61-.47-1.22-.81-1.83-1.02s-1.24-.32-1.89-.32c-1.25,0-2.22.4-2.89,1.2-.67.8-1.01,1.97-1.01,3.52s.34,2.72,1.01,3.53c.67.81,1.64,1.21,2.89,1.21.65,0,1.28-.11,1.89-.32.61-.21,1.22-.55,1.83-1.02l1,2.22c-.55.51-1.25.9-2.1,1.19-.85.29-1.75.43-2.68.43-1.43,0-2.67-.3-3.73-.9Z"/>
        <path class="cls-1" d="M219.73,26.92c-.79-.42-1.39-1.01-1.82-1.78-.43-.77-.64-1.67-.64-2.71s.21-1.94.64-2.71c.43-.77,1.03-1.36,1.82-1.77.79-.41,1.7-.62,2.74-.62s1.95.21,2.74.62c.79.41,1.39,1,1.82,1.77.43.77.64,1.67.64,2.71s-.21,1.94-.64,2.71c-.43.77-1.03,1.36-1.82,1.78-.79.42-1.7.63-2.74.63s-1.95-.21-2.74-.63ZM224.67,22.43c0-.95-.19-1.65-.57-2.12-.38-.47-.92-.7-1.63-.7-1.47,0-2.2.94-2.2,2.82s.73,2.82,2.2,2.82,2.2-.94,2.2-2.82Z"/>
        <path class="cls-1" d="M238.29,18.36c.57.69.86,1.72.86,3.11v5.92h-3.02v-5.78c0-.67-.12-1.15-.37-1.46-.25-.31-.63-.46-1.15-.46-.63,0-1.13.2-1.51.6s-.57.93-.57,1.6v5.5h-3.02v-9.82h2.94v1.4c.35-.53.8-.94,1.35-1.22.55-.28,1.18-.42,1.87-.42,1.17,0,2.05.34,2.62,1.03Z"/>
        <path class="cls-1" d="M247.81,25.27l-.16,2.2c-.39.05-.77.08-1.16.08-1.49,0-2.58-.33-3.27-.98s-1.03-1.65-1.03-2.98v-3.76h-1.86v-2.26h1.86v-2.88h3.02v2.88h2.46v2.26h-2.46v3.74c0,1.17.55,1.76,1.64,1.76.31,0,.63-.02.96-.06Z"/>
        <path class="cls-1" d="M249.05,12.85h3.24v2.82h-3.24v-2.82ZM249.15,27.39v-9.82h3.02v9.82h-3.02Z"/>
        <path class="cls-1" d="M263.27,18.36c.57.69.86,1.72.86,3.11v5.92h-3.02v-5.78c0-.67-.12-1.15-.37-1.46-.25-.31-.63-.46-1.15-.46-.63,0-1.13.2-1.51.6s-.57.93-.57,1.6v5.5h-3.02v-9.82h2.94v1.4c.35-.53.8-.94,1.35-1.22.55-.28,1.18-.42,1.87-.42,1.17,0,2.05.34,2.62,1.03Z"/>
        <path class="cls-1" d="M275.85,17.57v9.82h-2.94v-1.4c-.31.51-.71.89-1.21,1.16-.5.27-1.06.4-1.69.4-1.24,0-2.16-.34-2.77-1.03-.61-.69-.91-1.72-.91-3.11v-5.84h3.02v5.9c0,.59.12,1.02.37,1.3.25.28.62.42,1.13.42.59,0,1.06-.2,1.43-.6.37-.4.55-.93.55-1.58v-5.44h3.02Z"/>
        <path class="cls-1" d="M280.15,26.92c-.79-.42-1.39-1.01-1.82-1.78-.43-.77-.64-1.67-.64-2.71s.21-1.94.64-2.71c.43-.77,1.03-1.36,1.82-1.77.79-.41,1.7-.62,2.74-.62s1.95.21,2.74.62c.79.41,1.39,1,1.82,1.77.43.77.64,1.67.64,2.71s-.21,1.94-.64,2.71c-.43.77-1.03,1.36-1.82,1.78-.79.42-1.7.63-2.74.63s-1.95-.21-2.74-.63ZM285.09,22.43c0-.95-.19-1.65-.57-2.12-.38-.47-.92-.7-1.63-.7-1.47,0-2.2.94-2.2,2.82s.73,2.82,2.2,2.82,2.2-.94,2.2-2.82Z"/>
        <path class="cls-1" d="M299.39,17.57v9.82h-2.94v-1.4c-.31.51-.71.89-1.21,1.16-.5.27-1.06.4-1.69.4-1.24,0-2.16-.34-2.77-1.03-.61-.69-.91-1.72-.91-3.11v-5.84h3.02v5.9c0,.59.12,1.02.37,1.3.25.28.62.42,1.13.42.59,0,1.06-.2,1.43-.6.37-.4.55-.93.55-1.58v-5.44h3.02Z"/>
        <path class="cls-1" d="M303,27.24c-.75-.21-1.4-.5-1.95-.89l.8-2.08c.53.36,1.12.64,1.76.84.64.2,1.29.3,1.94.3.47,0,.83-.08,1.09-.23s.39-.36.39-.63c0-.24-.09-.43-.27-.56s-.52-.25-1.01-.36l-1.6-.36c-.95-.21-1.64-.54-2.09-.99-.45-.45-.67-1.06-.67-1.83,0-.61.18-1.15.53-1.62.35-.47.85-.83,1.5-1.1.65-.27,1.38-.4,2.21-.4.71,0,1.39.11,2.06.32.67.21,1.27.51,1.8.9l-.8,2c-1.04-.72-2.07-1.08-3.08-1.08-.47,0-.83.08-1.1.24-.27.16-.4.39-.4.68,0,.21.08.38.24.5s.44.23.84.34l1.66.38c1,.23,1.73.57,2.19,1.03s.69,1.08.69,1.87c0,.95-.38,1.69-1.13,2.23s-1.79.81-3.11.81c-.91,0-1.74-.1-2.49-.31Z"/>
        <path class="cls-1" d="M320.53,27.39v-11.56h-4.42v-2.54h11.96v2.54h-4.42v11.56h-3.12Z"/>
        <path class="cls-1" d="M338.25,18.36c.57.69.86,1.72.86,3.11v5.92h-3.02v-5.78c0-.67-.12-1.15-.37-1.46-.25-.31-.63-.46-1.15-.46-.63,0-1.13.2-1.51.6s-.57.93-.57,1.6v5.5h-3.02v-14.1h3.02v5.58c.35-.51.79-.89,1.33-1.15.54-.26,1.14-.39,1.81-.39,1.17,0,2.05.34,2.62,1.03Z"/>
        <path class="cls-1" d="M348.39,19.81l-1.7.18c-.84.08-1.43.32-1.78.71-.35.39-.52.92-.52,1.57v5.12h-3.02v-9.82h2.9v1.66c.49-1.13,1.51-1.75,3.06-1.86l.88-.06.18,2.5Z"/>
        <path class="cls-1" d="M358.03,23.05h-6.4c.09.79.35,1.36.77,1.71.42.35,1.02.53,1.79.53.51,0,1.01-.08,1.51-.25.5-.17.96-.4,1.37-.71l.8,2.02c-.48.37-1.06.67-1.75.88-.69.21-1.38.32-2.07.32-1.65,0-2.96-.46-3.91-1.37-.95-.91-1.43-2.16-1.43-3.73,0-1,.21-1.89.62-2.66.41-.77.99-1.38,1.72-1.81.73-.43,1.57-.65,2.5-.65,1.37,0,2.46.45,3.27,1.34.81.89,1.21,2.11,1.21,3.64v.74ZM352.26,19.96c-.34.37-.55.9-.63,1.59h3.86c-.04-.71-.22-1.24-.53-1.6s-.76-.54-1.33-.54-1.03.18-1.37.55Z"/>
        <path class="cls-1" d="M367.46,18.37c.7.69,1.05,1.77,1.05,3.22v5.8h-2.86v-1.46c-.2.51-.53.9-1,1.19s-1.01.43-1.64.43c-.67,0-1.27-.13-1.81-.4-.54-.27-.97-.64-1.28-1.12-.31-.48-.47-1.01-.47-1.6,0-.72.18-1.29.55-1.7.37-.41.96-.71,1.77-.9.81-.19,1.93-.28,3.34-.28h.52v-.36c0-.59-.13-1-.38-1.24-.25-.24-.69-.36-1.32-.36-.48,0-1.01.09-1.6.26-.59.17-1.15.41-1.68.72l-.8-2.02c.56-.35,1.25-.64,2.07-.87.82-.23,1.58-.35,2.29-.35,1.47,0,2.55.35,3.25,1.04ZM365.09,24.88c.36-.39.54-.9.54-1.53v-.34h-.34c-1.08,0-1.84.09-2.27.26-.43.17-.65.49-.65.94,0,.36.12.66.37.9.25.24.56.36.93.36.59,0,1.06-.2,1.42-.59Z"/>
        <path class="cls-1" d="M377.17,25.27l-.16,2.2c-.39.05-.77.08-1.16.08-1.49,0-2.58-.33-3.27-.98s-1.03-1.65-1.03-2.98v-3.76h-1.86v-2.26h1.86v-2.88h3.02v2.88h2.46v2.26h-2.46v3.74c0,1.17.55,1.76,1.64,1.76.31,0,.63-.02.96-.06Z"/>
        <path class="cls-1" d="M384.33,27.39v-14.1h9.72v2.42h-6.68v3.3h6.28v2.42h-6.28v3.54h6.68v2.42h-9.72Z"/>
        <path class="cls-1" d="M401.91,22.33l4.16,5.06h-3.54l-2.34-2.94-2.32,2.94h-3.56l4.16-5.06-3.92-4.76h3.58l2.06,2.66,2.08-2.66h3.56l-3.92,4.76Z"/>
        <path class="cls-1" d="M415.08,17.98c.66.43,1.17,1.04,1.54,1.82.37.78.55,1.68.55,2.69s-.18,1.9-.55,2.67c-.37.77-.88,1.36-1.53,1.77-.65.41-1.41.62-2.26.62-.67,0-1.27-.14-1.81-.41-.54-.27-.96-.66-1.25-1.15v5h-3.02v-13.42h2.98v1.38c.29-.51.71-.9,1.26-1.19s1.16-.43,1.84-.43c.84,0,1.59.22,2.25.65ZM413.59,24.54c.39-.47.58-1.16.58-2.05s-.19-1.61-.58-2.11-.93-.75-1.64-.75-1.25.24-1.64.73-.58,1.18-.58,2.09.19,1.58.58,2.07c.39.49.93.73,1.64.73s1.25-.24,1.64-.71Z"/>
        <path class="cls-1" d="M420.99,26.92c-.79-.42-1.39-1.01-1.82-1.78-.43-.77-.64-1.67-.64-2.71s.21-1.94.64-2.71c.43-.77,1.03-1.36,1.82-1.77.79-.41,1.7-.62,2.74-.62s1.95.21,2.74.62c.79.41,1.39,1,1.82,1.77.43.77.64,1.67.64,2.71s-.21,1.94-.64,2.71c-.43.77-1.03,1.36-1.82,1.78-.79.42-1.7.63-2.74.63s-1.95-.21-2.74-.63ZM425.93,22.43c0-.95-.19-1.65-.57-2.12-.38-.47-.92-.7-1.63-.7-1.47,0-2.2.94-2.2,2.82s.73,2.82,2.2,2.82,2.2-.94,2.2-2.82Z"/>
        <path class="cls-1" d="M432.06,27.24c-.75-.21-1.4-.5-1.95-.89l.8-2.08c.53.36,1.12.64,1.76.84.64.2,1.29.3,1.94.3.47,0,.83-.08,1.09-.23s.39-.36.39-.63c0-.24-.09-.43-.27-.56s-.52-.25-1.01-.36l-1.6-.36c-.95-.21-1.64-.54-2.09-.99s-.67-1.06-.67-1.83c0-.61.18-1.15.53-1.62.35-.47.85-.83,1.5-1.1.65-.27,1.38-.4,2.21-.4.71,0,1.39.11,2.06.32.67.21,1.27.51,1.8.9l-.8,2c-1.04-.72-2.07-1.08-3.08-1.08-.47,0-.83.08-1.1.24-.27.16-.4.39-.4.68,0,.21.08.38.24.5s.44.23.84.34l1.66.38c1,.23,1.73.57,2.19,1.03.46.46.69,1.08.69,1.87,0,.95-.38,1.69-1.13,2.23-.75.54-1.79.81-3.11.81-.91,0-1.74-.1-2.49-.31Z"/>
        <path class="cls-1" d="M449.97,17.57v9.82h-2.94v-1.4c-.31.51-.71.89-1.21,1.16-.5.27-1.06.4-1.69.4-1.24,0-2.16-.34-2.77-1.03-.61-.69-.91-1.72-.91-3.11v-5.84h3.02v5.9c0,.59.12,1.02.37,1.3.25.28.62.42,1.13.42.59,0,1.06-.2,1.43-.6.37-.4.55-.93.55-1.58v-5.44h3.02Z"/>
        <path class="cls-1" d="M459.31,19.81l-1.7.18c-.84.08-1.43.32-1.78.71-.35.39-.52.92-.52,1.57v5.12h-3.02v-9.82h2.9v1.66c.49-1.13,1.51-1.75,3.06-1.86l.88-.06.18,2.5Z"/>
        <path class="cls-1" d="M468.95,23.05h-6.4c.09.79.35,1.36.77,1.71.42.35,1.02.53,1.79.53.51,0,1.01-.08,1.51-.25.5-.17.96-.4,1.37-.71l.8,2.02c-.48.37-1.06.67-1.75.88-.69.21-1.38.32-2.07.32-1.65,0-2.96-.46-3.91-1.37-.96-.91-1.43-2.16-1.43-3.73,0-1,.21-1.89.62-2.66.41-.77.99-1.38,1.72-1.81.73-.43,1.57-.65,2.5-.65,1.38,0,2.46.45,3.27,1.34.81.89,1.21,2.11,1.21,3.64v.74ZM463.18,19.96c-.34.37-.55.9-.63,1.59h3.86c-.04-.71-.22-1.24-.53-1.6-.31-.36-.76-.54-1.33-.54s-1.03.18-1.37.55Z"/>
        <path class="cls-1" d="M488.17,13.29h2.42v14.1h-2.74v-8.36l-3.24,6.04h-2l-3.24-5.96v8.28h-2.74v-14.1h2.46l4.54,8.62,4.54-8.62Z"/>
        <path class="cls-1" d="M500.8,18.37c.7.69,1.05,1.77,1.05,3.22v5.8h-2.86v-1.46c-.2.51-.53.9-1,1.19s-1.01.43-1.64.43c-.67,0-1.27-.13-1.81-.4-.54-.27-.97-.64-1.28-1.12s-.47-1.01-.47-1.6c0-.72.18-1.29.55-1.7.37-.41.96-.71,1.77-.9.81-.19,1.93-.28,3.34-.28h.52v-.36c0-.59-.13-1-.38-1.24-.25-.24-.69-.36-1.32-.36-.48,0-1.01.09-1.6.26-.59.17-1.15.41-1.68.72l-.8-2.02c.56-.35,1.25-.64,2.07-.87s1.58-.35,2.29-.35c1.47,0,2.55.35,3.25,1.04ZM498.43,24.88c.36-.39.54-.9.54-1.53v-.34h-.34c-1.08,0-1.84.09-2.27.26-.43.17-.65.49-.65.94,0,.36.12.66.37.9.25.24.56.36.93.36.59,0,1.06-.2,1.42-.59Z"/>
        <path class="cls-1" d="M512.89,18.36c.57.69.86,1.72.86,3.11v5.92h-3.02v-5.78c0-.67-.12-1.15-.37-1.46-.25-.31-.63-.46-1.15-.46-.63,0-1.13.2-1.51.6-.38.4-.57.93-.57,1.6v5.5h-3.02v-9.82h2.94v1.4c.35-.53.8-.94,1.35-1.22.55-.28,1.18-.42,1.87-.42,1.17,0,2.05.34,2.62,1.03Z"/>
        <path class="cls-1" d="M523.62,18.37c.7.69,1.05,1.77,1.05,3.22v5.8h-2.86v-1.46c-.2.51-.53.9-1,1.19s-1.01.43-1.64.43c-.67,0-1.27-.13-1.81-.4-.54-.27-.97-.64-1.28-1.12-.31-.48-.47-1.01-.47-1.6,0-.72.18-1.29.55-1.7.37-.41.96-.71,1.77-.9.81-.19,1.93-.28,3.34-.28h.52v-.36c0-.59-.13-1-.38-1.24-.25-.24-.69-.36-1.32-.36-.48,0-1.01.09-1.6.26-.59.17-1.15.41-1.68.72l-.8-2.02c.56-.35,1.25-.64,2.07-.87.82-.23,1.58-.35,2.29-.35,1.47,0,2.55.35,3.25,1.04ZM521.25,24.88c.36-.39.54-.9.54-1.53v-.34h-.34c-1.08,0-1.84.09-2.27.26-.43.17-.65.49-.65.94,0,.36.12.66.37.9.25.24.56.36.93.36.59,0,1.06-.2,1.42-.59Z"/>
        <path class="cls-1" d="M536.95,17.57v8.76c0,1.59-.45,2.79-1.36,3.6-.91.81-2.25,1.22-4.02,1.22-.88,0-1.72-.11-2.53-.32s-1.52-.51-2.13-.9l.8-2.08c1.27.69,2.53,1.04,3.78,1.04,1.65,0,2.48-.78,2.48-2.34v-1.08c-.28.51-.7.91-1.26,1.2-.56.29-1.19.44-1.88.44-.85,0-1.61-.2-2.27-.6s-1.18-.97-1.55-1.71c-.38-.74-.56-1.6-.56-2.57s.19-1.83.56-2.57c.37-.74.89-1.31,1.55-1.72.66-.41,1.42-.61,2.27-.61.68,0,1.3.14,1.85.43.55.29.98.68,1.27,1.19v-1.38h3ZM533.36,24.13c.39-.45.59-1.09.59-1.9s-.2-1.45-.59-1.91c-.39-.46-.94-.69-1.65-.69s-1.26.23-1.66.69-.6,1.1-.6,1.91.2,1.43.6,1.89.95.69,1.66.69,1.26-.23,1.65-.68Z"/>
        <path class="cls-1" d="M548.11,23.05h-6.4c.09.79.35,1.36.77,1.71.42.35,1.02.53,1.79.53.51,0,1.01-.08,1.51-.25.5-.17.96-.4,1.37-.71l.8,2.02c-.48.37-1.06.67-1.75.88-.69.21-1.38.32-2.07.32-1.65,0-2.96-.46-3.91-1.37-.95-.91-1.43-2.16-1.43-3.73,0-1,.21-1.89.62-2.66.41-.77.99-1.38,1.72-1.81.73-.43,1.57-.65,2.5-.65,1.37,0,2.46.45,3.27,1.34.81.89,1.21,2.11,1.21,3.64v.74ZM542.34,19.96c-.34.37-.55.9-.63,1.59h3.86c-.04-.71-.22-1.24-.53-1.6-.31-.36-.76-.54-1.33-.54s-1.03.18-1.37.55Z"/>
        <path class="cls-1" d="M564.53,18.35c.55.68.82,1.72.82,3.12v5.92h-3.02v-5.82c0-.67-.1-1.15-.31-1.44-.21-.29-.56-.44-1.05-.44-.57,0-1.02.2-1.34.6s-.48.96-.48,1.68v5.42h-3.02v-5.82c0-.67-.1-1.15-.31-1.44-.21-.29-.56-.44-1.05-.44-.57,0-1.02.2-1.34.6s-.48.96-.48,1.68v5.42h-3.02v-9.82h2.94v1.32c.31-.51.72-.89,1.23-1.16.51-.27,1.1-.4,1.77-.4,1.45,0,2.43.61,2.92,1.82.32-.56.77-1,1.34-1.33s1.21-.49,1.9-.49c1.12,0,1.95.34,2.5,1.02Z"/>
        <path class="cls-1" d="M576.47,23.05h-6.4c.09.79.35,1.36.77,1.71.42.35,1.02.53,1.79.53.51,0,1.01-.08,1.51-.25.5-.17.96-.4,1.37-.71l.8,2.02c-.48.37-1.06.67-1.75.88-.69.21-1.38.32-2.07.32-1.65,0-2.96-.46-3.91-1.37-.95-.91-1.43-2.16-1.43-3.73,0-1,.21-1.89.62-2.66.41-.77.99-1.38,1.72-1.81.73-.43,1.57-.65,2.5-.65,1.37,0,2.46.45,3.27,1.34.81.89,1.21,2.11,1.21,3.64v.74ZM570.7,19.96c-.34.37-.55.9-.63,1.59h3.86c-.04-.71-.22-1.24-.53-1.6-.31-.36-.76-.54-1.33-.54s-1.03.18-1.37.55Z"/>
        <path class="cls-1" d="M587.07,18.36c.57.69.86,1.72.86,3.11v5.92h-3.02v-5.78c0-.67-.12-1.15-.37-1.46-.25-.31-.63-.46-1.15-.46-.63,0-1.13.2-1.51.6-.38.4-.57.93-.57,1.6v5.5h-3.02v-9.82h2.94v1.4c.35-.53.8-.94,1.35-1.22.55-.28,1.18-.42,1.87-.42,1.17,0,2.04.34,2.62,1.03Z"/>
        <path class="cls-1" d="M596.59,25.27l-.16,2.2c-.39.05-.77.08-1.16.08-1.49,0-2.58-.33-3.27-.98-.69-.65-1.03-1.65-1.03-2.98v-3.76h-1.86v-2.26h1.86v-2.88h3.02v2.88h2.46v2.26h-2.46v3.74c0,1.17.55,1.76,1.64,1.76.31,0,.63-.02.96-.06Z"/>
      </g>
      <rect class="cls-16" x="299.52" y="64.48" width="200.96" height="116.94" rx="6.59" ry="6.59"/>
      <rect class="cls-15" x="594.04" y="64.48" width="200.96" height="116.94" rx="6.59" ry="6.59"/>
      <rect class="cls-15" x="297.13" y="225.05" width="200.96" height="116.94" rx="6.59" ry="6.59"/>
      <rect class="cls-15" x="5" y="64.48" width="200.96" height="116.94" rx="6.59" ry="6.59"/>
      <circle class="cls-13" cx="398.58" cy="96" r="25"/>
      <circle class="cls-13" cx="398.58" cy="261.8" r="25"/>
      <circle class="cls-13" cx="694.54" cy="98.65" r="25"/>
      <circle class="cls-13" cx="104.71" cy="98.65" r="25"/>
      <g>
        <path class="cls-1" d="M346.19,136.65c-.69-.39-1.21-.95-1.58-1.68-.37-.73-.55-1.57-.55-2.54s.18-1.81.55-2.53.89-1.28,1.58-1.67c.69-.39,1.49-.59,2.41-.59.63,0,1.22.1,1.78.29.56.19,1.03.47,1.41.82l-.57,1.25c-.42-.34-.85-.58-1.26-.74s-.86-.23-1.33-.23c-.9,0-1.6.29-2.09.88-.49.58-.74,1.43-.74,2.52s.25,1.95.74,2.54c.49.58,1.19.88,2.09.88.47,0,.91-.08,1.33-.23s.84-.4,1.26-.74l.57,1.25c-.38.35-.85.63-1.41.82-.56.19-1.15.29-1.78.29-.92,0-1.72-.2-2.41-.59Z"/>
        <path class="cls-1" d="M354.29,136.82c-.5-.27-.89-.67-1.16-1.18s-.41-1.11-.41-1.79.14-1.28.41-1.79c.27-.51.66-.9,1.16-1.17.5-.27,1.08-.41,1.75-.41s1.25.14,1.75.41.88.67,1.16,1.17c.27.51.4,1.1.4,1.79s-.13,1.28-.4,1.79c-.27.51-.66.91-1.16,1.18s-1.08.41-1.75.41-1.25-.14-1.75-.41ZM357.25,135.41c.28-.35.42-.88.42-1.57s-.14-1.2-.42-1.56c-.28-.36-.69-.54-1.22-.54s-.94.18-1.23.54c-.29.36-.43.88-.43,1.56s.14,1.21.42,1.57.69.53,1.22.53.95-.18,1.23-.53Z"/>
        <path class="cls-1" d="M366.21,131.14c.38.44.57,1.11.57,2v3.98h-1.66v-3.89c0-.5-.1-.87-.29-1.1s-.49-.35-.9-.35c-.48,0-.86.15-1.15.45-.29.3-.43.7-.43,1.21v3.68h-1.66v-6.49h1.62v.97c.22-.36.52-.64.89-.84.37-.19.79-.29,1.26-.29.78,0,1.36.22,1.74.66Z"/>
        <path class="cls-1" d="M372.4,135.94l-.08,1.23c-.27.03-.51.04-.73.04-.91,0-1.58-.21-2.02-.63s-.65-1.05-.65-1.88v-2.83h-1.25v-1.25h1.25v-1.94h1.66v1.94h1.71v1.25h-1.71v2.8c0,.87.4,1.3,1.21,1.3.2,0,.4-.01.61-.04Z"/>
        <path class="cls-1" d="M373.28,127.62h1.83v1.63h-1.83v-1.63ZM373.37,137.12v-6.49h1.66v6.49h-1.66Z"/>
        <path class="cls-1" d="M382.25,131.14c.38.44.57,1.11.57,2v3.98h-1.66v-3.89c0-.5-.1-.87-.29-1.1s-.49-.35-.9-.35c-.48,0-.86.15-1.15.45-.29.3-.43.7-.43,1.21v3.68h-1.66v-6.49h1.62v.97c.22-.36.52-.64.89-.84.37-.19.79-.29,1.26-.29.78,0,1.36.22,1.74.66Z"/>
        <path class="cls-1" d="M390.47,130.63v6.49h-1.62v-1c-.2.35-.48.63-.82.82-.34.19-.73.29-1.17.29-1.59,0-2.39-.89-2.39-2.68v-3.92h1.66v3.93c0,.46.09.8.28,1.02.19.22.48.33.88.33.46,0,.83-.15,1.11-.46.28-.31.42-.71.42-1.21v-3.61h1.66Z"/>
        <path class="cls-1" d="M393.41,136.82c-.5-.27-.89-.67-1.16-1.18s-.41-1.11-.41-1.79.14-1.28.41-1.79c.27-.51.66-.9,1.16-1.17.5-.27,1.08-.41,1.75-.41s1.25.14,1.75.41.88.67,1.16,1.17c.27.51.4,1.1.4,1.79s-.13,1.28-.4,1.79c-.27.51-.66.91-1.16,1.18s-1.08.41-1.75.41-1.25-.14-1.75-.41ZM396.38,135.41c.28-.35.42-.88.42-1.57s-.14-1.2-.42-1.56c-.28-.36-.69-.54-1.22-.54s-.94.18-1.23.54c-.29.36-.43.88-.43,1.56s.14,1.21.42,1.57.69.53,1.22.53.95-.18,1.23-.53Z"/>
        <path class="cls-1" d="M405.79,130.63v6.49h-1.62v-1c-.2.35-.48.63-.82.82-.34.19-.73.29-1.17.29-1.59,0-2.39-.89-2.39-2.68v-3.92h1.66v3.93c0,.46.09.8.28,1.02.19.22.48.33.88.33.46,0,.83-.15,1.11-.46.28-.31.42-.71.42-1.21v-3.61h1.66Z"/>
        <path class="cls-1" d="M408.32,137.02c-.48-.14-.89-.34-1.23-.61l.46-1.16c.69.5,1.48.76,2.38.76.38,0,.67-.06.87-.19.2-.12.3-.3.3-.53,0-.19-.07-.35-.21-.45-.14-.11-.38-.2-.74-.29l-1.06-.24c-.6-.13-1.05-.35-1.34-.65s-.44-.69-.44-1.17c0-.4.11-.75.34-1.06.23-.31.54-.54.94-.71.4-.17.87-.25,1.4-.25.46,0,.9.07,1.33.21.43.14.81.34,1.13.6l-.46,1.13c-.67-.49-1.35-.73-2.02-.73-.36,0-.65.07-.85.2-.2.13-.3.32-.3.56,0,.18.06.32.19.44.13.12.33.2.62.27l1.1.25c.65.14,1.12.37,1.42.67s.45.71.45,1.2c0,.6-.24,1.08-.73,1.43-.49.35-1.15.53-1.98.53-.58,0-1.1-.07-1.59-.21Z"/>
        <path class="cls-1" d="M419.9,137.12v-7.95h-3.05v-1.41h7.82v1.41h-3.05v7.95h-1.71Z"/>
        <path class="cls-1" d="M431.2,131.14c.38.44.57,1.11.57,2v3.98h-1.66v-3.89c0-.5-.1-.87-.29-1.1s-.49-.35-.9-.35c-.48,0-.86.15-1.15.45-.29.3-.43.7-.43,1.21v3.68h-1.66v-9.36h1.66v3.77c.22-.35.52-.61.88-.79.37-.18.78-.27,1.23-.27.78,0,1.36.22,1.74.66Z"/>
        <path class="cls-1" d="M437.73,131.85l-.97.09c-1.1.12-1.65.67-1.65,1.67v3.5h-1.66v-6.49h1.58v1.14c.34-.78,1.03-1.2,2.08-1.27l.5-.04.11,1.39Z"/>
        <path class="cls-1" d="M444.1,134.18h-4.42c.05.6.23,1.05.54,1.34s.75.44,1.33.44c.72,0,1.37-.23,1.96-.69l.48,1.14c-.3.25-.68.45-1.13.6-.46.15-.91.23-1.37.23-1.06,0-1.9-.3-2.52-.9s-.92-1.43-.92-2.47c0-.66.13-1.25.4-1.77.27-.51.64-.91,1.12-1.19.48-.28,1.03-.42,1.64-.42.89,0,1.6.29,2.12.86.52.58.78,1.37.78,2.38v.46ZM440.18,132.06c-.27.28-.44.69-.5,1.22h3c-.02-.54-.15-.95-.4-1.23s-.59-.42-1.04-.42-.8.14-1.07.42Z"/>
        <path class="cls-1" d="M450.28,131.14c.44.44.66,1.12.66,2.04v3.94h-1.58v-1c-.15.35-.39.62-.71.81-.32.19-.7.29-1.12.29s-.83-.09-1.18-.27c-.35-.18-.63-.42-.84-.73-.2-.31-.31-.65-.31-1.04,0-.48.12-.85.37-1.13.24-.27.64-.47,1.19-.6s1.31-.19,2.27-.19h.33v-.31c0-.44-.09-.76-.29-.96-.19-.19-.51-.29-.95-.29-.34,0-.71.06-1.08.18-.38.12-.75.29-1.11.5l-.46-1.14c.36-.23.8-.42,1.31-.57.51-.15,1-.23,1.46-.23.91,0,1.59.22,2.03.66ZM448.94,135.59c.28-.3.42-.68.42-1.15v-.28h-.24c-.59,0-1.05.03-1.38.08s-.56.15-.7.28-.21.31-.21.54c0,.28.1.52.29.7.19.18.44.27.74.27.44,0,.8-.15,1.08-.44Z"/>
        <path class="cls-1" d="M456.56,135.94l-.08,1.23c-.27.03-.51.04-.73.04-.91,0-1.58-.21-2.02-.63s-.65-1.05-.65-1.88v-2.83h-1.25v-1.25h1.25v-1.94h1.66v1.94h1.71v1.25h-1.71v2.8c0,.87.4,1.3,1.21,1.3.2,0,.4-.01.61-.04Z"/>
        <path class="cls-1" d="M331.07,153.05v-9.36h6.27v1.35h-4.59v2.58h4.33v1.34h-4.33v2.73h4.59v1.35h-6.27Z"/>
        <path class="cls-1" d="M342.37,149.71l2.73,3.35h-1.96l-1.73-2.16-1.71,2.16h-1.96l2.72-3.35-2.58-3.15h1.98l1.55,1.98,1.55-1.98h1.98l-2.58,3.15Z"/>
        <path class="cls-1" d="M351.03,146.83c.44.28.78.68,1.02,1.2s.37,1.11.37,1.79-.12,1.26-.37,1.77-.58.89-1.02,1.17-.93.41-1.5.41c-.46,0-.87-.1-1.24-.29-.36-.19-.64-.46-.84-.81v3.39h-1.66v-8.88h1.63v.98c.19-.36.48-.64.84-.84s.79-.3,1.25-.3c.56,0,1.05.14,1.49.42ZM350.32,151.33c.29-.36.44-.87.44-1.52s-.15-1.19-.44-1.57c-.29-.37-.7-.56-1.22-.56s-.94.18-1.23.54c-.29.36-.43.88-.43,1.55s.14,1.18.43,1.54c.29.36.7.54,1.23.54s.93-.18,1.22-.54Z"/>
        <path class="cls-1" d="M355,152.75c-.5-.27-.89-.67-1.16-1.18s-.41-1.11-.41-1.79.14-1.28.41-1.79c.27-.51.66-.9,1.16-1.17.5-.27,1.08-.41,1.75-.41s1.25.14,1.75.41.88.67,1.16,1.17c.27.51.4,1.1.4,1.79s-.13,1.28-.4,1.79c-.27.51-.66.91-1.16,1.18s-1.08.41-1.75.41-1.25-.14-1.75-.41ZM357.97,151.34c.28-.35.42-.88.42-1.57s-.14-1.2-.42-1.56c-.28-.36-.69-.54-1.22-.54s-.94.18-1.23.54c-.29.36-.43.88-.43,1.56s.14,1.21.42,1.57.69.53,1.22.53.95-.18,1.23-.53Z"/>
        <path class="cls-1" d="M362.22,152.95c-.48-.14-.89-.34-1.23-.61l.46-1.16c.69.5,1.48.76,2.38.76.38,0,.67-.06.87-.19.2-.12.3-.3.3-.53,0-.19-.07-.35-.21-.45-.14-.11-.38-.2-.74-.29l-1.06-.24c-.6-.13-1.05-.35-1.34-.65s-.44-.69-.44-1.17c0-.4.11-.75.34-1.06.23-.31.54-.54.94-.71.4-.17.87-.25,1.4-.25.46,0,.9.07,1.33.21.43.14.81.34,1.13.6l-.46,1.13c-.67-.49-1.35-.73-2.02-.73-.36,0-.65.07-.85.2-.2.13-.3.32-.3.56,0,.18.06.32.19.44.13.12.33.2.62.27l1.1.25c.65.14,1.12.37,1.42.67s.45.71.45,1.2c0,.6-.24,1.08-.73,1.43-.49.35-1.15.53-1.98.53-.58,0-1.1-.07-1.59-.21Z"/>
        <path class="cls-1" d="M373.82,146.56v6.49h-1.62v-1c-.2.35-.48.63-.82.82-.34.19-.73.29-1.17.29-1.59,0-2.39-.89-2.39-2.68v-3.92h1.66v3.93c0,.46.09.8.28,1.02.19.22.48.33.88.33.46,0,.83-.15,1.11-.46.28-.31.42-.71.42-1.21v-3.61h1.66Z"/>
        <path class="cls-1" d="M379.82,147.78l-.97.09c-1.1.12-1.65.67-1.65,1.67v3.5h-1.66v-6.49h1.58v1.14c.34-.78,1.03-1.2,2.08-1.27l.5-.04.11,1.39Z"/>
        <path class="cls-1" d="M386.19,150.11h-4.42c.05.6.23,1.05.54,1.34s.75.44,1.33.44c.72,0,1.37-.23,1.96-.69l.48,1.14c-.3.25-.68.45-1.13.6-.46.15-.91.23-1.37.23-1.06,0-1.9-.3-2.52-.9s-.92-1.43-.92-2.47c0-.66.13-1.25.4-1.77.27-.51.64-.91,1.12-1.19.48-.28,1.03-.42,1.64-.42.89,0,1.6.29,2.12.86.52.58.78,1.37.78,2.38v.46ZM382.27,148c-.27.28-.44.69-.5,1.22h3c-.02-.54-.15-.95-.4-1.23s-.59-.42-1.04-.42-.8.14-1.07.42Z"/>
        <path class="cls-1" d="M399.08,143.69h1.34v9.36h-1.51v-6.19l-2.47,4.67h-1.14l-2.48-4.61v6.12s-1.5,0-1.5,0v-9.36h1.35l3.21,6.12,3.2-6.12Z"/>
        <path class="cls-1" d="M407.13,147.07c.44.44.66,1.12.66,2.04v3.94h-1.58v-1c-.15.35-.39.62-.71.81-.32.19-.7.29-1.12.29s-.83-.09-1.18-.27c-.35-.18-.63-.42-.84-.73-.2-.31-.31-.65-.31-1.04,0-.48.12-.85.37-1.13.24-.27.64-.47,1.19-.6s1.31-.19,2.27-.19h.33v-.31c0-.44-.09-.76-.29-.96-.19-.19-.51-.29-.95-.29-.34,0-.71.06-1.08.18-.38.12-.75.29-1.11.5l-.46-1.14c.36-.23.8-.42,1.31-.57.51-.15,1-.23,1.46-.23.91,0,1.59.22,2.03.66ZM405.79,151.52c.28-.3.42-.68.42-1.15v-.28h-.24c-.59,0-1.05.03-1.38.08s-.56.15-.7.28-.21.31-.21.54c0,.28.1.52.29.7.19.18.44.27.74.27.44,0,.8-.15,1.08-.44Z"/>
        <path class="cls-1" d="M414.99,147.07c.38.44.57,1.11.57,2v3.98h-1.66v-3.89c0-.5-.1-.87-.29-1.1s-.49-.35-.9-.35c-.48,0-.86.15-1.15.45-.29.3-.43.7-.43,1.21v3.68h-1.66v-6.49h1.62v.97c.22-.36.52-.64.89-.84.37-.19.79-.29,1.26-.29.78,0,1.36.22,1.74.66Z"/>
        <path class="cls-1" d="M422.06,147.07c.44.44.66,1.12.66,2.04v3.94h-1.58v-1c-.15.35-.39.62-.71.81-.32.19-.7.29-1.12.29s-.83-.09-1.18-.27c-.35-.18-.63-.42-.84-.73-.2-.31-.31-.65-.31-1.04,0-.48.12-.85.37-1.13.24-.27.64-.47,1.19-.6s1.31-.19,2.27-.19h.33v-.31c0-.44-.09-.76-.29-.96-.19-.19-.51-.29-.95-.29-.34,0-.71.06-1.08.18-.38.12-.75.29-1.11.5l-.46-1.14c.36-.23.8-.42,1.31-.57.51-.15,1-.23,1.46-.23.91,0,1.59.22,2.03.66ZM420.73,151.52c.28-.3.42-.68.42-1.15v-.28h-.24c-.59,0-1.05.03-1.38.08s-.56.15-.7.28-.21.31-.21.54c0,.28.1.52.29.7.19.18.44.27.74.27.44,0,.8-.15,1.08-.44Z"/>
        <path class="cls-1" d="M430.73,146.56v5.89c0,1.02-.28,1.79-.84,2.31-.56.52-1.39.78-2.49.78-.57,0-1.11-.07-1.63-.22s-.98-.35-1.37-.62l.46-1.17c.8.49,1.64.73,2.5.73,1.15,0,1.73-.57,1.73-1.7v-.85c-.2.36-.48.64-.85.84-.37.2-.8.3-1.27.3-.57,0-1.07-.13-1.51-.4-.44-.27-.78-.65-1.03-1.14-.25-.49-.37-1.05-.37-1.69s.12-1.2.36-1.69c.24-.49.59-.87,1.03-1.14.44-.27.95-.4,1.51-.4.48,0,.9.1,1.27.3s.65.48.85.84v-.98h1.65ZM428.64,151.06c.3-.35.44-.82.44-1.42s-.15-1.09-.44-1.43c-.3-.35-.71-.52-1.24-.52s-.93.17-1.23.52-.45.82-.45,1.43.15,1.06.45,1.41.71.52,1.23.52.95-.17,1.24-.52Z"/>
        <path class="cls-1" d="M438.14,150.11h-4.42c.05.6.23,1.05.54,1.34s.75.44,1.33.44c.72,0,1.37-.23,1.96-.69l.48,1.14c-.3.25-.68.45-1.13.6-.46.15-.91.23-1.37.23-1.06,0-1.9-.3-2.52-.9s-.92-1.43-.92-2.47c0-.66.13-1.25.4-1.77.27-.51.64-.91,1.12-1.19.48-.28,1.03-.42,1.64-.42.89,0,1.6.29,2.12.86.52.58.78,1.37.78,2.38v.46ZM434.22,148c-.27.28-.44.69-.5,1.22h3c-.02-.54-.15-.95-.4-1.23s-.59-.42-1.04-.42-.8.14-1.07.42Z"/>
        <path class="cls-1" d="M448.86,147.06c.36.44.54,1.11.54,2.01v3.98h-1.66v-3.92c0-.5-.08-.86-.25-1.08-.17-.23-.44-.34-.81-.34-.44,0-.79.15-1.04.45-.25.3-.37.72-.37,1.26v3.62h-1.66v-3.92c0-.5-.08-.86-.25-1.08-.16-.23-.44-.34-.82-.34-.43,0-.77.15-1.02.45-.25.3-.37.72-.37,1.26v3.62h-1.66v-6.49h1.62v.92c.19-.35.46-.62.81-.8.35-.18.74-.27,1.18-.27.98,0,1.63.41,1.95,1.22.2-.38.5-.68.88-.9.38-.22.81-.33,1.27-.33.73,0,1.28.22,1.65.66Z"/>
        <path class="cls-1" d="M456.78,150.11h-4.42c.05.6.23,1.05.54,1.34s.75.44,1.33.44c.72,0,1.37-.23,1.96-.69l.48,1.14c-.3.25-.68.45-1.13.6-.46.15-.91.23-1.37.23-1.06,0-1.9-.3-2.52-.9s-.92-1.43-.92-2.47c0-.66.13-1.25.4-1.77.27-.51.64-.91,1.12-1.19.48-.28,1.03-.42,1.64-.42.89,0,1.6.29,2.12.86.52.58.78,1.37.78,2.38v.46ZM452.86,148c-.27.28-.44.69-.5,1.22h3c-.02-.54-.15-.95-.4-1.23s-.59-.42-1.04-.42-.8.14-1.07.42Z"/>
        <path class="cls-1" d="M463.65,147.07c.38.44.57,1.11.57,2v3.98h-1.66v-3.89c0-.5-.1-.87-.29-1.1s-.49-.35-.9-.35c-.48,0-.86.15-1.15.45-.29.3-.43.7-.43,1.21v3.68h-1.66v-6.49h1.62v.97c.22-.36.52-.64.89-.84.37-.19.79-.29,1.26-.29.78,0,1.36.22,1.74.66Z"/>
        <path class="cls-1" d="M469.83,151.87l-.08,1.23c-.27.03-.51.04-.73.04-.91,0-1.58-.21-2.02-.63s-.65-1.05-.65-1.88v-2.83h-1.25v-1.25h1.25v-1.94h1.66v1.94h1.71v1.25h-1.71v2.8c0,.87.4,1.3,1.21,1.3.2,0,.4-.01.61-.04Z"/>
        <path class="cls-1" d="M379.12,168.49c-.27-.96-.4-1.96-.4-3s.13-2.04.4-3c.27-.96.72-1.98,1.37-3.08l1.1.45c-.43,1.07-.74,2.04-.91,2.92-.17.88-.26,1.78-.26,2.71s.09,1.83.26,2.71c.17.88.48,1.85.91,2.92l-1.1.45c-.65-1.1-1.1-2.12-1.37-3.08Z"/>
        <path class="cls-1" d="M384.81,168.51c-.69-.39-1.21-.95-1.58-1.68-.37-.73-.55-1.57-.55-2.54s.18-1.81.55-2.53.89-1.28,1.58-1.67c.69-.39,1.49-.59,2.41-.59.63,0,1.22.1,1.78.29.56.19,1.03.47,1.41.82l-.57,1.25c-.42-.34-.85-.58-1.26-.74s-.86-.23-1.33-.23c-.9,0-1.6.29-2.09.88-.49.58-.74,1.43-.74,2.52s.25,1.95.74,2.54c.49.58,1.19.88,2.09.88.47,0,.91-.08,1.33-.23s.84-.4,1.26-.74l.57,1.25c-.38.35-.85.63-1.41.82-.56.19-1.15.29-1.78.29-.92,0-1.72-.2-2.41-.59Z"/>
        <path class="cls-1" d="M394.04,168.98v-7.95h-3.05v-1.41h7.82v1.41h-3.05v7.95h-1.71Z"/>
        <path class="cls-1" d="M399.97,168.98v-9.36h6.27v1.35h-4.59v2.58h4.33v1.34h-4.33v2.73h4.59v1.35h-6.27Z"/>
        <path class="cls-1" d="M415.59,159.63h1.34v9.36h-1.51v-6.19l-2.47,4.67h-1.14l-2.48-4.61v6.12s-1.5,0-1.5,0v-9.36h1.35l3.21,6.12,3.2-6.12Z"/>
        <path class="cls-1" d="M418.41,171.12c.43-1.07.74-2.04.91-2.92.17-.88.26-1.78.26-2.71s-.09-1.83-.26-2.71c-.17-.88-.48-1.85-.91-2.92l1.1-.45c.65,1.1,1.1,2.12,1.37,3.08.27.96.4,1.96.4,3s-.13,2.04-.4,3c-.26.96-.72,1.98-1.37,3.08l-1.1-.45Z"/>
      </g>
      <g>
        <path class="cls-1" d="M235.14,87v-9.36h1.71v9.36h-1.71Z"/>
        <path class="cls-1" d="M244.24,81.02c.38.44.57,1.11.57,2v3.98h-1.66v-3.89c0-.5-.1-.87-.29-1.1s-.49-.35-.9-.35c-.48,0-.86.15-1.15.45-.29.3-.43.7-.43,1.21v3.68h-1.66v-6.49h1.62v.97c.22-.36.52-.64.89-.84.37-.19.79-.29,1.26-.29.78,0,1.36.22,1.74.66Z"/>
        <path class="cls-1" d="M248.6,80.51h1.71v1.25h-1.71v5.24h-1.66v-5.24h-1.25v-1.25h1.25c0-.93.24-1.63.72-2.1s1.23-.73,2.25-.78l.65-.04.11,1.23-.62.03c-.52.03-.89.14-1.12.35-.22.21-.33.54-.33,1v.31Z"/>
        <path class="cls-1" d="M252.39,86.7c-.5-.27-.89-.67-1.16-1.18s-.41-1.11-.41-1.79.14-1.28.41-1.79c.27-.51.66-.9,1.16-1.17.5-.27,1.08-.41,1.75-.41s1.25.14,1.75.41.88.67,1.16,1.17c.27.51.4,1.1.4,1.79s-.13,1.28-.4,1.79c-.27.51-.66.91-1.16,1.18s-1.08.41-1.75.41-1.25-.14-1.75-.41ZM255.36,85.29c.28-.35.42-.88.42-1.57s-.14-1.2-.42-1.56c-.28-.36-.69-.54-1.22-.54s-.94.18-1.23.54c-.29.36-.43.88-.43,1.56s.14,1.21.42,1.57.69.53,1.22.53.95-.18,1.23-.53Z"/>
        <path class="cls-1" d="M263.09,81.73l-.97.09c-1.1.12-1.65.67-1.65,1.67v3.5h-1.66v-6.49h1.58v1.14c.34-.78,1.03-1.2,2.08-1.27l.5-.04.11,1.39Z"/>
        <path class="cls-1" d="M273.26,81.01c.36.44.54,1.11.54,2.01v3.98h-1.66v-3.92c0-.5-.08-.86-.25-1.08-.17-.23-.44-.34-.81-.34-.44,0-.79.15-1.04.45-.25.3-.37.72-.37,1.26v3.62h-1.66v-3.92c0-.5-.08-.86-.25-1.08-.16-.23-.44-.34-.82-.34-.43,0-.77.15-1.02.45-.25.3-.37.72-.37,1.26v3.62h-1.66v-6.49h1.62v.92c.19-.35.46-.62.81-.8.35-.18.74-.27,1.18-.27.98,0,1.63.41,1.95,1.22.2-.38.5-.68.88-.9.38-.22.81-.33,1.27-.33.73,0,1.28.22,1.65.66Z"/>
      </g>
      <g>
        <path class="cls-1" d="M239.19,156.01h3.45c1.53,0,2.72.41,3.56,1.23.84.82,1.27,1.97,1.27,3.44s-.42,2.63-1.27,3.45c-.85.82-2.03,1.23-3.56,1.23h-3.45v-9.36ZM242.54,163.97c2.15,0,3.23-1.1,3.23-3.29s-1.08-3.28-3.23-3.28h-1.63v6.57h1.63Z"/>
        <path class="cls-1" d="M253.33,160.1l-.97.09c-1.1.12-1.65.67-1.65,1.67v3.5h-1.66v-6.49h1.58v1.14c.34-.78,1.03-1.2,2.08-1.27l.5-.04.11,1.39Z"/>
        <path class="cls-1" d="M254.05,155.86h1.83v1.63h-1.83v-1.63ZM254.14,165.37v-6.49h1.66v6.49h-1.66Z"/>
        <path class="cls-1" d="M262.07,158.89h1.63l-2.84,6.48h-1.45l-2.81-6.48h1.75l1.83,4.58,1.89-4.58Z"/>
        <path class="cls-1" d="M270.08,162.42h-4.42c.05.6.23,1.05.54,1.34s.75.44,1.33.44c.72,0,1.37-.23,1.96-.69l.48,1.14c-.3.25-.68.45-1.13.6-.46.15-.91.23-1.37.23-1.06,0-1.9-.3-2.52-.9s-.92-1.43-.92-2.47c0-.66.13-1.25.4-1.77.27-.51.64-.91,1.12-1.19.48-.28,1.03-.42,1.64-.42.89,0,1.6.29,2.12.86.52.58.78,1.37.78,2.38v.46ZM266.16,160.31c-.27.28-.44.69-.5,1.22h3c-.02-.54-.15-.95-.4-1.23s-.59-.42-1.04-.42-.8.14-1.07.42Z"/>
      </g>
      <g>
        <path class="cls-1" d="M310.88,204.53v-9.36h1.71v9.36h-1.71Z"/>
        <path class="cls-1" d="M319.97,198.55c.38.44.57,1.11.57,2v3.98h-1.66v-3.89c0-.5-.1-.87-.29-1.1s-.49-.35-.9-.35c-.48,0-.86.15-1.15.45-.29.3-.43.7-.43,1.21v3.68h-1.66v-6.49h1.62v.97c.22-.36.52-.64.89-.84.37-.19.79-.29,1.26-.29.78,0,1.36.22,1.74.66Z"/>
        <path class="cls-1" d="M322.14,195.03h1.83v1.63h-1.83v-1.63ZM322.23,204.53v-6.49h1.66v6.49h-1.66Z"/>
        <path class="cls-1" d="M329.53,203.35l-.08,1.23c-.27.03-.51.04-.73.04-.91,0-1.58-.21-2.02-.63s-.65-1.05-.65-1.88v-2.83h-1.25v-1.25h1.25v-1.94h1.66v1.94h1.71v1.25h-1.71v2.8c0,.87.4,1.3,1.21,1.3.2,0,.4-.01.61-.04Z"/>
        <path class="cls-1" d="M330.41,195.03h1.83v1.63h-1.83v-1.63ZM330.5,204.53v-6.49h1.66v6.49h-1.66Z"/>
        <path class="cls-1" d="M338.69,198.55c.44.44.66,1.12.66,2.04v3.94h-1.58v-1c-.15.35-.39.62-.71.81-.32.19-.7.29-1.12.29s-.83-.09-1.18-.27c-.35-.18-.63-.42-.84-.73-.2-.31-.31-.65-.31-1.04,0-.48.12-.85.37-1.13.24-.27.64-.47,1.19-.6s1.31-.19,2.27-.19h.33v-.31c0-.44-.09-.76-.29-.96-.19-.19-.51-.29-.95-.29-.34,0-.71.06-1.08.18-.38.12-.75.29-1.11.5l-.46-1.14c.36-.23.8-.42,1.31-.57.51-.15,1-.23,1.46-.23.91,0,1.59.22,2.03.66ZM337.36,203c.28-.3.42-.68.42-1.15v-.28h-.24c-.59,0-1.05.03-1.38.08s-.56.15-.7.28-.21.31-.21.54c0,.28.1.52.29.7.19.18.44.27.74.27.44,0,.8-.15,1.08-.44Z"/>
        <path class="cls-1" d="M344.97,203.35l-.08,1.23c-.27.03-.51.04-.73.04-.91,0-1.58-.21-2.02-.63s-.65-1.05-.65-1.88v-2.83h-1.25v-1.25h1.25v-1.94h1.66v1.94h1.71v1.25h-1.71v2.8c0,.87.4,1.3,1.21,1.3.2,0,.4-.01.61-.04Z"/>
        <path class="cls-1" d="M351.64,201.59h-4.42c.05.6.23,1.05.54,1.34s.75.44,1.33.44c.72,0,1.37-.23,1.96-.69l.48,1.14c-.3.25-.68.45-1.13.6-.46.15-.91.23-1.37.23-1.06,0-1.9-.3-2.52-.9s-.92-1.43-.92-2.47c0-.66.13-1.25.4-1.77.27-.51.64-.91,1.12-1.19.48-.28,1.03-.42,1.64-.42.89,0,1.6.29,2.12.86.52.58.78,1.37.78,2.38v.46ZM347.71,199.48c-.27.28-.44.69-.5,1.22h3c-.02-.54-.15-.95-.4-1.23s-.59-.42-1.04-.42-.8.14-1.07.42Z"/>
      </g>
      <g>
        <path class="cls-1" d="M451.3,195.17h1.74l-4.17,9.36h-1.39l-4.17-9.36h1.77l3.11,7.24,3.12-7.24Z"/>
        <path class="cls-1" d="M457.82,198.55c.44.44.66,1.12.66,2.04v3.94h-1.58v-1c-.15.35-.39.62-.71.81-.32.19-.7.29-1.12.29s-.83-.09-1.18-.27c-.35-.18-.63-.42-.84-.73-.21-.31-.31-.65-.31-1.04,0-.48.12-.85.37-1.13.24-.27.64-.47,1.19-.6s1.3-.19,2.27-.19h.33v-.31c0-.44-.1-.76-.29-.96-.19-.19-.51-.29-.95-.29-.35,0-.71.06-1.08.18-.38.12-.75.29-1.11.5l-.46-1.14c.36-.23.8-.42,1.31-.57.51-.15,1-.23,1.46-.23.91,0,1.59.22,2.03.66ZM456.49,203c.28-.3.42-.68.42-1.15v-.28h-.24c-.59,0-1.05.03-1.38.08-.33.05-.56.15-.71.28-.14.13-.21.31-.21.54,0,.28.1.52.29.7.2.18.44.27.74.27.44,0,.8-.15,1.08-.44Z"/>
        <path class="cls-1" d="M460.17,204.53v-9.36h1.66v9.36h-1.66Z"/>
        <path class="cls-1" d="M463.45,195.03h1.83v1.63h-1.83v-1.63ZM463.54,204.53v-6.49h1.66v6.49h-1.66Z"/>
        <path class="cls-1" d="M473.18,195.17v9.36h-1.64v-1.05c-.2.36-.48.65-.84.85s-.79.31-1.25.31c-.56,0-1.06-.14-1.49-.43-.44-.28-.78-.68-1.02-1.2-.24-.52-.36-1.11-.36-1.79s.12-1.26.36-1.77c.24-.5.58-.89,1.02-1.17s.94-.41,1.5-.41c.47,0,.88.1,1.25.29.36.19.64.47.84.82v-3.82h1.66ZM471.11,202.81c.29-.36.43-.88.43-1.55s-.14-1.19-.43-1.55c-.29-.36-.69-.54-1.21-.54s-.94.18-1.23.53c-.29.35-.44.86-.44,1.53s.15,1.19.44,1.57c.29.37.7.56,1.22.56s.94-.18,1.23-.54Z"/>
        <path class="cls-1" d="M479.71,198.55c.44.44.66,1.12.66,2.04v3.94h-1.58v-1c-.15.35-.39.62-.71.81-.32.19-.7.29-1.12.29s-.83-.09-1.18-.27c-.35-.18-.63-.42-.84-.73-.2-.31-.3-.65-.3-1.04,0-.48.12-.85.37-1.13.24-.27.64-.47,1.19-.6s1.31-.19,2.27-.19h.33v-.31c0-.44-.09-.76-.29-.96-.19-.19-.51-.29-.95-.29-.34,0-.71.06-1.08.18-.38.12-.74.29-1.11.5l-.46-1.14c.36-.23.8-.42,1.31-.57.51-.15,1-.23,1.46-.23.91,0,1.59.22,2.03.66ZM478.38,203c.28-.3.42-.68.42-1.15v-.28h-.24c-.59,0-1.05.03-1.38.08-.33.05-.56.15-.7.28-.14.13-.21.31-.21.54,0,.28.1.52.29.7.19.18.44.27.74.27.44,0,.8-.15,1.08-.44Z"/>
        <path class="cls-1" d="M485.99,203.35l-.08,1.23c-.27.03-.51.04-.73.04-.91,0-1.58-.21-2.02-.63s-.65-1.05-.65-1.88v-2.83h-1.25v-1.25h1.25v-1.94h1.66v1.94h1.71v1.25h-1.71v2.8c0,.87.4,1.3,1.21,1.3.2,0,.4-.01.61-.04Z"/>
        <path class="cls-1" d="M492.66,201.59h-4.42c.05.6.23,1.05.54,1.34.31.29.75.44,1.33.44.72,0,1.37-.23,1.96-.69l.48,1.14c-.3.25-.68.45-1.13.6s-.91.23-1.37.23c-1.06,0-1.9-.3-2.52-.9s-.92-1.43-.92-2.47c0-.66.13-1.25.4-1.77.27-.51.64-.91,1.12-1.19.48-.28,1.03-.42,1.64-.42.89,0,1.6.29,2.12.86.52.58.78,1.37.78,2.38v.46ZM488.73,199.48c-.27.28-.44.69-.5,1.22h3c-.02-.54-.15-.95-.4-1.23s-.59-.42-1.04-.42-.8.14-1.07.42Z"/>
      </g>
      <g>
        <path class="cls-1" d="M528.84,87v-9.36h6.27v1.35h-4.59v2.58h4.33v1.34h-4.33v2.73h4.59v1.35h-6.27Z"/>
        <path class="cls-1" d="M542.03,81.02c.38.44.57,1.11.57,2v3.98h-1.66v-3.89c0-.5-.1-.87-.29-1.1s-.49-.35-.9-.35c-.48,0-.86.15-1.15.45-.29.3-.43.7-.43,1.21v3.68h-1.66v-6.49h1.62v.97c.22-.36.52-.64.89-.84.37-.19.79-.29,1.26-.29.78,0,1.36.22,1.74.66Z"/>
        <path class="cls-1" d="M548.56,81.73l-.97.09c-1.1.12-1.65.67-1.65,1.67v3.5h-1.66v-6.49h1.58v1.14c.34-.78,1.03-1.2,2.08-1.27l.5-.04.11,1.39Z"/>
        <path class="cls-1" d="M549.28,77.5h1.83v1.63h-1.83v-1.63ZM549.37,87v-6.49h1.66v6.49h-1.66Z"/>
        <path class="cls-1" d="M553.93,86.7c-.5-.27-.88-.66-1.15-1.17-.26-.5-.4-1.09-.4-1.77s.14-1.27.42-1.79c.28-.52.67-.92,1.19-1.2.51-.28,1.11-.42,1.78-.42.46,0,.91.07,1.35.22s.79.34,1.06.59l-.48,1.17c-.27-.22-.56-.39-.87-.5-.31-.11-.61-.17-.91-.17-.58,0-1.02.18-1.34.54-.32.36-.48.87-.48,1.55s.16,1.18.48,1.53c.32.36.77.54,1.34.54.3,0,.6-.06.91-.17.31-.12.59-.28.87-.5l.48,1.16c-.28.26-.65.46-1.09.6s-.9.22-1.38.22c-.68,0-1.27-.14-1.77-.41Z"/>
        <path class="cls-1" d="M564.73,81.02c.38.44.57,1.11.57,2v3.98h-1.66v-3.89c0-.5-.1-.87-.29-1.1s-.49-.35-.9-.35c-.48,0-.86.15-1.15.45-.29.3-.43.7-.43,1.21v3.68h-1.66v-9.36h1.66v3.77c.22-.35.52-.61.88-.79.37-.18.78-.27,1.23-.27.78,0,1.36.22,1.74.66Z"/>
      </g>
      <g>
        <path class="cls-1" d="M520.44,156.01h4.09c1,0,1.78.25,2.34.75s.84,1.2.84,2.1-.28,1.61-.84,2.11c-.56.5-1.34.76-2.34.76h-2.38v3.64h-1.71v-9.36ZM524.32,160.41c1.18,0,1.77-.51,1.77-1.54,0-.52-.15-.91-.44-1.16-.29-.25-.73-.38-1.33-.38h-2.16v3.08h2.16Z"/>
        <path class="cls-1" d="M533.2,160.1l-.97.09c-1.1.12-1.65.67-1.65,1.67v3.5h-1.66v-6.49h1.58v1.14c.34-.78,1.03-1.2,2.08-1.27l.5-.04.11,1.39Z"/>
        <path class="cls-1" d="M533.92,155.86h1.83v1.63h-1.83v-1.63ZM534.01,165.37v-6.49h1.66v6.49h-1.66Z"/>
        <path class="cls-1" d="M538.6,165.06c-.5-.27-.89-.67-1.16-1.18s-.41-1.11-.41-1.79.14-1.28.41-1.79c.27-.51.66-.9,1.16-1.17.5-.27,1.08-.41,1.75-.41s1.25.14,1.75.41.88.67,1.16,1.17c.27.51.4,1.1.4,1.79s-.13,1.28-.4,1.79c-.27.51-.66.91-1.16,1.18s-1.08.41-1.75.41-1.25-.14-1.75-.41ZM541.56,163.65c.28-.35.42-.88.42-1.57s-.14-1.2-.42-1.56c-.28-.36-.69-.54-1.22-.54s-.94.18-1.23.54c-.29.36-.43.88-.43,1.56s.14,1.21.42,1.57.69.53,1.22.53.95-.18,1.23-.53Z"/>
        <path class="cls-1" d="M549.29,160.1l-.97.09c-1.1.12-1.65.67-1.65,1.67v3.5h-1.66v-6.49h1.58v1.14c.34-.78,1.03-1.2,2.08-1.27l.5-.04.11,1.39Z"/>
        <path class="cls-1" d="M550.01,155.86h1.83v1.63h-1.83v-1.63ZM550.1,165.37v-6.49h1.66v6.49h-1.66Z"/>
        <path class="cls-1" d="M557.4,164.19l-.08,1.23c-.27.03-.51.04-.73.04-.91,0-1.58-.21-2.02-.63s-.65-1.05-.65-1.88v-2.83h-1.25v-1.25h1.25v-1.94h1.66v1.94h1.71v1.25h-1.71v2.8c0,.87.4,1.3,1.21,1.3.2,0,.4-.01.61-.04Z"/>
        <path class="cls-1" d="M558.28,155.86h1.83v1.63h-1.83v-1.63ZM558.37,165.37v-6.49h1.66v6.49h-1.66Z"/>
        <path class="cls-1" d="M563.47,164.12h3.69v1.25h-5.66v-1.15l3.53-4.09h-3.46v-1.25h5.46v1.13l-3.56,4.12Z"/>
        <path class="cls-1" d="M574.04,162.42h-4.42c.05.6.23,1.05.54,1.34s.75.44,1.33.44c.72,0,1.37-.23,1.96-.69l.48,1.14c-.3.25-.68.45-1.13.6-.46.15-.91.23-1.37.23-1.06,0-1.9-.3-2.52-.9s-.92-1.43-.92-2.47c0-.66.13-1.25.4-1.77.27-.51.64-.91,1.12-1.19.48-.28,1.03-.42,1.64-.42.89,0,1.6.29,2.12.86.52.58.78,1.37.78,2.38v.46ZM570.11,160.31c-.27.28-.44.69-.5,1.22h3c-.02-.54-.15-.95-.4-1.23s-.59-.42-1.04-.42-.8.14-1.07.42Z"/>
      </g>
      <g>
        <path class="cls-1" d="M48.51,143.16v4.49c-.42.21-.94.38-1.55.5s-1.22.19-1.85.19c-.96,0-1.8-.19-2.51-.58-.71-.39-1.25-.94-1.63-1.66-.38-.72-.56-1.58-.56-2.57s.19-1.83.56-2.56c.38-.72.91-1.27,1.61-1.66.69-.39,1.51-.58,2.45-.58.66,0,1.27.1,1.85.29.58.19,1.05.46,1.43.82l-.57,1.23c-.43-.34-.86-.58-1.28-.72-.42-.15-.88-.22-1.39-.22-.96,0-1.69.29-2.18.86-.49.57-.74,1.42-.74,2.54,0,2.3,1.01,3.45,3.03,3.45.6,0,1.2-.08,1.8-.25v-2.35h-2.02v-1.22h3.54Z"/>
        <path class="cls-1" d="M51.5,147.91c-.5-.27-.89-.67-1.16-1.18s-.41-1.11-.41-1.79.14-1.28.41-1.79c.27-.51.66-.9,1.16-1.17.5-.27,1.08-.41,1.75-.41s1.25.14,1.75.41.88.67,1.16,1.17c.27.51.4,1.1.4,1.79s-.13,1.28-.4,1.79c-.27.51-.66.91-1.16,1.18s-1.08.41-1.75.41-1.25-.14-1.75-.41ZM54.47,146.5c.28-.35.42-.88.42-1.57s-.14-1.2-.42-1.56c-.28-.36-.69-.54-1.22-.54s-.94.18-1.23.54c-.29.36-.43.88-.43,1.56s.14,1.21.42,1.57.69.53,1.22.53.95-.18,1.23-.53Z"/>
        <path class="cls-1" d="M62.37,141.74h1.63l-2.84,6.48h-1.45l-2.81-6.48h1.75l1.83,4.58,1.89-4.58Z"/>
        <path class="cls-1" d="M70.39,145.27h-4.42c.05.6.23,1.05.54,1.34s.75.44,1.33.44c.72,0,1.37-.23,1.96-.69l.48,1.14c-.3.25-.68.45-1.13.6-.46.15-.91.23-1.37.23-1.06,0-1.9-.3-2.52-.9s-.92-1.43-.92-2.47c0-.66.13-1.25.4-1.77.27-.51.64-.91,1.12-1.19.48-.28,1.03-.42,1.64-.42.89,0,1.6.29,2.12.86.52.58.78,1.37.78,2.38v.46ZM66.46,143.16c-.27.28-.44.69-.5,1.22h3c-.02-.54-.15-.95-.4-1.23s-.59-.42-1.04-.42-.8.14-1.07.42Z"/>
        <path class="cls-1" d="M76.02,142.94l-.97.09c-1.1.12-1.65.67-1.65,1.67v3.5h-1.66v-6.49h1.58v1.14c.34-.78,1.03-1.2,2.08-1.27l.5-.04.11,1.39Z"/>
        <path class="cls-1" d="M82.34,142.23c.38.44.57,1.11.57,2v3.98h-1.66v-3.89c0-.5-.1-.87-.29-1.1s-.49-.35-.9-.35c-.48,0-.86.15-1.15.45-.29.3-.43.7-.43,1.21v3.68h-1.66v-6.49h1.62v.97c.22-.36.52-.64.89-.84.37-.19.79-.29,1.26-.29.78,0,1.36.22,1.74.66Z"/>
        <path class="cls-1" d="M89.41,142.23c.44.44.66,1.12.66,2.04v3.94h-1.58v-1c-.15.35-.39.62-.71.81-.32.19-.7.29-1.12.29s-.83-.09-1.18-.27c-.35-.18-.63-.42-.84-.73-.2-.31-.31-.65-.31-1.04,0-.48.12-.85.37-1.13.24-.27.64-.47,1.19-.6s1.31-.19,2.27-.19h.33v-.31c0-.44-.09-.76-.29-.96-.19-.19-.51-.29-.95-.29-.34,0-.71.06-1.08.18-.38.12-.75.29-1.11.5l-.46-1.14c.36-.23.8-.42,1.31-.57.51-.15,1-.23,1.46-.23.91,0,1.59.22,2.03.66ZM88.08,146.68c.28-.3.42-.68.42-1.15v-.28h-.24c-.59,0-1.05.03-1.38.08s-.56.15-.7.28-.21.31-.21.54c0,.28.1.52.29.7.19.18.44.27.74.27.44,0,.8-.15,1.08-.44Z"/>
        <path class="cls-1" d="M97.27,142.23c.38.44.57,1.11.57,2v3.98h-1.66v-3.89c0-.5-.1-.87-.29-1.1s-.49-.35-.9-.35c-.48,0-.86.15-1.15.45-.29.3-.43.7-.43,1.21v3.68h-1.66v-6.49h1.62v.97c.22-.36.52-.64.89-.84.37-.19.79-.29,1.26-.29.78,0,1.36.22,1.74.66Z"/>
        <path class="cls-1" d="M100.72,147.91c-.5-.27-.88-.66-1.15-1.17-.26-.5-.4-1.09-.4-1.77s.14-1.27.42-1.79c.28-.52.67-.92,1.19-1.2.51-.28,1.11-.42,1.78-.42.46,0,.91.07,1.35.22s.79.34,1.06.59l-.48,1.17c-.27-.22-.56-.39-.87-.5-.31-.11-.61-.17-.91-.17-.58,0-1.02.18-1.34.54-.32.36-.48.87-.48,1.55s.16,1.18.48,1.53c.32.36.77.54,1.34.54.3,0,.6-.06.91-.17.31-.12.59-.28.87-.5l.48,1.16c-.28.26-.65.46-1.09.6s-.9.22-1.38.22c-.68,0-1.27-.14-1.77-.41Z"/>
        <path class="cls-1" d="M111.7,145.27h-4.42c.05.6.23,1.05.54,1.34s.75.44,1.33.44c.72,0,1.37-.23,1.96-.69l.48,1.14c-.3.25-.68.45-1.13.6-.46.15-.91.23-1.37.23-1.06,0-1.9-.3-2.52-.9s-.92-1.43-.92-2.47c0-.66.13-1.25.4-1.77.27-.51.64-.91,1.12-1.19.48-.28,1.03-.42,1.64-.42.89,0,1.6.29,2.12.86.52.58.78,1.37.78,2.38v.46ZM107.78,143.16c-.27.28-.44.69-.5,1.22h3c-.02-.54-.15-.95-.4-1.23s-.59-.42-1.04-.42-.8.14-1.07.42Z"/>
        <path class="cls-1" d="M124.65,148.21h-1.86l-1.61-2.99c-.15-.28-.34-.48-.56-.6-.22-.11-.5-.17-.84-.17h-1.3v3.76h-1.69v-9.36h4.14c1.06,0,1.87.24,2.42.71.55.47.83,1.16.83,2.05,0,.72-.2,1.31-.6,1.77-.4.46-.97.77-1.71.91.5.13.89.48,1.19,1.05l1.57,2.87ZM122.12,142.78c.3-.24.45-.62.45-1.12s-.15-.89-.45-1.12c-.3-.23-.78-.35-1.42-.35h-2.23v2.96h2.23c.65,0,1.12-.12,1.42-.37Z"/>
        <path class="cls-1" d="M125.79,138.71h1.83v1.63h-1.83v-1.63ZM125.88,148.21v-6.49h1.66v6.49h-1.66Z"/>
        <path class="cls-1" d="M130.06,148.11c-.48-.14-.89-.34-1.23-.61l.46-1.16c.69.5,1.48.76,2.38.76.38,0,.67-.06.87-.19.2-.12.3-.3.3-.53,0-.19-.07-.35-.21-.45-.14-.11-.38-.2-.74-.29l-1.06-.24c-.6-.13-1.05-.35-1.34-.65s-.44-.69-.44-1.17c0-.4.11-.75.34-1.06.23-.31.54-.54.94-.71.4-.17.87-.25,1.4-.25.46,0,.9.07,1.33.21.43.14.81.34,1.13.6l-.46,1.13c-.67-.49-1.35-.73-2.02-.73-.36,0-.65.07-.85.2-.2.13-.3.32-.3.56,0,.18.06.32.19.44.13.12.33.2.62.27l1.1.25c.65.14,1.12.37,1.42.67s.45.71.45,1.2c0,.6-.24,1.08-.73,1.43-.49.35-1.15.53-1.98.53-.58,0-1.1-.07-1.59-.21Z"/>
        <path class="cls-1" d="M142.2,148.21h-2.06l-2.79-2.96v2.96h-1.66v-9.36h1.66v5.71l2.62-2.83h2.02l-2.92,3.11,3.13,3.37Z"/>
        <path class="cls-1" d="M151.22,142.23c.44.44.66,1.12.66,2.04v3.94h-1.58v-1c-.15.35-.39.62-.71.81-.32.19-.7.29-1.12.29s-.83-.09-1.18-.27c-.35-.18-.63-.42-.84-.73-.2-.31-.31-.65-.31-1.04,0-.48.12-.85.37-1.13.24-.27.64-.47,1.19-.6s1.31-.19,2.27-.19h.33v-.31c0-.44-.09-.76-.29-.96-.19-.19-.51-.29-.95-.29-.34,0-.71.06-1.08.18-.38.12-.75.29-1.11.5l-.46-1.14c.36-.23.8-.42,1.31-.57.51-.15,1-.23,1.46-.23.91,0,1.59.22,2.03.66ZM149.89,146.68c.28-.3.42-.68.42-1.15v-.28h-.24c-.59,0-1.05.03-1.38.08s-.56.15-.7.28-.21.31-.21.54c0,.28.1.52.29.7.19.18.44.27.74.27.44,0,.8-.15,1.08-.44Z"/>
        <path class="cls-1" d="M159.08,142.23c.38.44.57,1.11.57,2v3.98h-1.66v-3.89c0-.5-.1-.87-.29-1.1s-.49-.35-.9-.35c-.48,0-.86.15-1.15.45-.29.3-.43.7-.43,1.21v3.68h-1.66v-6.49h1.62v.97c.22-.36.52-.64.89-.84.37-.19.79-.29,1.26-.29.78,0,1.36.22,1.74.66Z"/>
        <path class="cls-1" d="M167.61,138.85v9.36h-1.65v-1.05c-.2.36-.48.65-.84.85s-.79.31-1.25.31c-.56,0-1.06-.14-1.49-.43-.44-.28-.78-.68-1.02-1.2-.24-.52-.36-1.11-.36-1.79s.12-1.26.36-1.77c.24-.5.58-.89,1.02-1.17s.93-.41,1.5-.41c.47,0,.88.1,1.25.29.36.19.64.47.84.82v-3.82h1.66ZM165.53,146.49c.29-.36.43-.88.43-1.55s-.14-1.19-.43-1.55c-.29-.36-.69-.54-1.21-.54s-.94.18-1.23.53c-.29.35-.44.86-.44,1.53s.15,1.19.44,1.57c.29.37.7.56,1.22.56s.94-.18,1.23-.54Z"/>
        <path class="cls-1" d="M50.91,163.67c-.69-.39-1.21-.95-1.58-1.68-.37-.73-.55-1.57-.55-2.54s.18-1.81.55-2.53.89-1.28,1.58-1.67c.69-.39,1.49-.59,2.41-.59.63,0,1.22.1,1.78.29.56.19,1.03.47,1.41.82l-.57,1.25c-.42-.34-.85-.58-1.26-.74s-.86-.23-1.33-.23c-.9,0-1.6.29-2.09.88-.49.58-.74,1.43-.74,2.52s.25,1.95.74,2.54c.49.58,1.19.88,2.09.88.47,0,.91-.08,1.33-.23s.84-.4,1.26-.74l.57,1.25c-.38.35-.85.63-1.41.82-.56.19-1.15.29-1.78.29-.92,0-1.72-.2-2.41-.59Z"/>
        <path class="cls-1" d="M59.01,163.84c-.5-.27-.89-.67-1.16-1.18s-.41-1.11-.41-1.79.14-1.28.41-1.79c.27-.51.66-.9,1.16-1.17.5-.27,1.08-.41,1.75-.41s1.25.14,1.75.41.88.67,1.16,1.17c.27.51.4,1.1.4,1.79s-.13,1.28-.4,1.79c-.27.51-.66.91-1.16,1.18s-1.08.41-1.75.41-1.25-.14-1.75-.41ZM61.98,162.43c.28-.35.42-.88.42-1.57s-.14-1.2-.42-1.56c-.28-.36-.69-.54-1.22-.54s-.94.18-1.23.54c-.29.36-.43.88-.43,1.56s.14,1.21.42,1.57.69.53,1.22.53.95-.18,1.23-.53Z"/>
        <path class="cls-1" d="M74.79,158.15c.36.44.54,1.11.54,2.01v3.98h-1.66v-3.92c0-.5-.08-.86-.25-1.08-.17-.23-.44-.34-.81-.34-.44,0-.79.15-1.04.45-.25.3-.37.72-.37,1.26v3.62h-1.66v-3.92c0-.5-.08-.86-.25-1.08-.16-.23-.44-.34-.82-.34-.43,0-.77.15-1.02.45-.25.3-.37.72-.37,1.26v3.62h-1.66v-6.49h1.62v.92c.19-.35.46-.62.81-.8.35-.18.74-.27,1.18-.27.98,0,1.63.41,1.95,1.22.2-.38.5-.68.88-.9.38-.22.81-.33,1.27-.33.73,0,1.28.22,1.65.66Z"/>
        <path class="cls-1" d="M82.24,157.92c.44.28.78.68,1.02,1.2s.37,1.11.37,1.79-.12,1.26-.37,1.77-.58.89-1.02,1.17-.93.41-1.5.41c-.46,0-.87-.1-1.24-.29-.36-.19-.64-.46-.84-.81v3.39h-1.66v-8.88h1.63v.98c.19-.36.48-.64.84-.84s.79-.3,1.25-.3c.56,0,1.05.14,1.49.42ZM81.53,162.43c.29-.36.44-.87.44-1.52s-.15-1.19-.44-1.57c-.29-.37-.7-.56-1.22-.56s-.94.18-1.23.54c-.29.36-.43.88-.43,1.55s.14,1.18.43,1.54c.29.36.7.54,1.23.54s.93-.18,1.22-.54Z"/>
        <path class="cls-1" d="M85,164.15v-9.36h1.66v9.36h-1.66Z"/>
        <path class="cls-1" d="M88.28,154.64h1.83v1.63h-1.83v-1.63ZM88.37,164.15v-6.49h1.66v6.49h-1.66Z"/>
        <path class="cls-1" d="M96.56,158.16c.44.44.66,1.12.66,2.04v3.94h-1.58v-1c-.15.35-.39.62-.71.81-.32.19-.7.29-1.12.29s-.83-.09-1.18-.27c-.35-.18-.63-.42-.84-.73-.2-.31-.31-.65-.31-1.04,0-.48.12-.85.37-1.13.24-.27.64-.47,1.19-.6s1.31-.19,2.27-.19h.33v-.31c0-.44-.09-.76-.29-.96-.19-.19-.51-.29-.95-.29-.34,0-.71.06-1.08.18-.38.12-.75.29-1.11.5l-.46-1.14c.36-.23.8-.42,1.31-.57.51-.15,1-.23,1.46-.23.91,0,1.59.22,2.03.66ZM95.23,162.61c.28-.3.42-.68.42-1.15v-.28h-.24c-.59,0-1.05.03-1.38.08s-.56.15-.7.28-.21.31-.21.54c0,.28.1.52.29.7.19.18.44.27.74.27.44,0,.8-.15,1.08-.44Z"/>
        <path class="cls-1" d="M104.42,158.16c.38.44.57,1.11.57,2v3.98h-1.66v-3.89c0-.5-.1-.87-.29-1.1s-.49-.35-.9-.35c-.48,0-.86.15-1.15.45-.29.3-.43.7-.43,1.21v3.68h-1.66v-6.49h1.62v.97c.22-.36.52-.64.89-.84.37-.19.79-.29,1.26-.29.78,0,1.36.22,1.74.66Z"/>
        <path class="cls-1" d="M107.86,163.84c-.5-.27-.88-.66-1.15-1.17-.26-.5-.4-1.09-.4-1.77s.14-1.27.42-1.79c.28-.52.67-.92,1.19-1.2.51-.28,1.11-.42,1.78-.42.46,0,.91.07,1.35.22s.79.34,1.06.59l-.48,1.17c-.27-.22-.56-.39-.87-.5-.31-.11-.61-.17-.91-.17-.58,0-1.02.18-1.34.54-.32.36-.48.87-.48,1.55s.16,1.18.48,1.53c.32.36.77.54,1.34.54.3,0,.6-.06.91-.17.31-.12.59-.28.87-.5l.48,1.16c-.28.26-.65.46-1.09.6s-.9.22-1.38.22c-.68,0-1.27-.14-1.77-.41Z"/>
        <path class="cls-1" d="M118.85,161.2h-4.42c.05.6.23,1.05.54,1.34s.75.44,1.33.44c.72,0,1.37-.23,1.96-.69l.48,1.14c-.3.25-.68.45-1.13.6-.46.15-.91.23-1.37.23-1.06,0-1.9-.3-2.52-.9s-.92-1.43-.92-2.47c0-.66.13-1.25.4-1.77.27-.51.64-.91,1.12-1.19.48-.28,1.03-.42,1.64-.42.89,0,1.6.29,2.12.86.52.58.78,1.37.78,2.38v.46ZM114.93,159.09c-.27.28-.44.69-.5,1.22h3c-.02-.54-.15-.95-.4-1.23s-.59-.42-1.04-.42-.8.14-1.07.42Z"/>
        <path class="cls-1" d="M124.68,163.65c-.27-.96-.4-1.96-.4-3s.13-2.04.4-3c.27-.96.72-1.98,1.37-3.08l1.1.45c-.43,1.07-.74,2.04-.91,2.92-.17.88-.26,1.78-.26,2.71s.09,1.83.26,2.71c.17.88.48,1.85.91,2.92l-1.1.45c-.65-1.1-1.1-2.12-1.37-3.08Z"/>
        <path class="cls-1" d="M136.33,159.09v4.49c-.42.21-.94.38-1.55.5s-1.22.19-1.85.19c-.96,0-1.8-.19-2.51-.58-.71-.39-1.25-.94-1.63-1.66-.38-.72-.56-1.58-.56-2.57s.19-1.83.56-2.56c.38-.72.91-1.27,1.61-1.66.69-.39,1.51-.58,2.45-.58.66,0,1.27.1,1.85.29.58.19,1.05.46,1.43.82l-.57,1.23c-.43-.34-.86-.58-1.28-.72-.42-.15-.88-.22-1.39-.22-.96,0-1.69.29-2.18.86-.49.57-.74,1.42-.74,2.54,0,2.3,1.01,3.45,3.03,3.45.6,0,1.2-.08,1.8-.25v-2.35h-2.02v-1.22h3.54Z"/>
        <path class="cls-1" d="M146.11,164.15h-1.86l-1.61-2.99c-.15-.28-.34-.48-.56-.6-.22-.11-.5-.17-.84-.17h-1.3v3.76h-1.69v-9.36h4.14c1.06,0,1.87.24,2.42.71.55.47.83,1.16.83,2.05,0,.72-.2,1.31-.6,1.77-.4.46-.97.77-1.71.91.5.13.89.48,1.19,1.05l1.57,2.87ZM143.58,158.71c.3-.24.45-.62.45-1.12s-.15-.89-.45-1.12c-.3-.23-.78-.35-1.42-.35h-2.23v2.96h2.23c.65,0,1.12-.12,1.42-.37Z"/>
        <path class="cls-1" d="M149.26,163.67c-.69-.39-1.21-.95-1.58-1.68-.37-.73-.55-1.57-.55-2.54s.18-1.81.55-2.53.89-1.28,1.58-1.67c.69-.39,1.49-.59,2.41-.59.63,0,1.22.1,1.78.29.56.19,1.03.47,1.41.82l-.57,1.25c-.42-.34-.85-.58-1.26-.74s-.86-.23-1.33-.23c-.9,0-1.6.29-2.09.88-.49.58-.74,1.43-.74,2.52s.25,1.95.74,2.54c.49.58,1.19.88,2.09.88.47,0,.91-.08,1.33-.23s.84-.4,1.26-.74l.57,1.25c-.38.35-.85.63-1.41.82-.56.19-1.15.29-1.78.29-.92,0-1.72-.2-2.41-.59Z"/>
        <path class="cls-1" d="M155.88,166.28c.43-1.07.74-2.04.91-2.92.17-.88.26-1.78.26-2.71s-.09-1.83-.26-2.71c-.17-.88-.48-1.85-.91-2.92l1.1-.45c.65,1.1,1.1,2.12,1.37,3.08.27.96.4,1.96.4,3s-.13,2.04-.4,3c-.26.96-.72,1.98-1.37,3.08l-1.1-.45Z"/>
      </g>
      <g>
        <path class="cls-1" d="M647.14,148.21v-7.95h-3.05v-1.41h7.82v1.41h-3.05v7.95h-1.71Z"/>
        <path class="cls-1" d="M658.44,142.23c.38.44.57,1.11.57,2v3.98h-1.66v-3.89c0-.5-.1-.87-.29-1.1s-.49-.35-.9-.35c-.48,0-.86.15-1.15.45-.29.3-.43.7-.43,1.21v3.68h-1.66v-9.36h1.66v3.77c.22-.35.52-.61.88-.79.37-.18.78-.27,1.23-.27.78,0,1.36.22,1.74.66Z"/>
        <path class="cls-1" d="M664.97,142.94l-.97.09c-1.1.12-1.65.67-1.65,1.67v3.5h-1.66v-6.49h1.58v1.14c.34-.78,1.03-1.2,2.08-1.27l.5-.04.11,1.39Z"/>
        <path class="cls-1" d="M671.34,145.27h-4.42c.05.6.23,1.05.54,1.34s.75.44,1.33.44c.72,0,1.37-.23,1.96-.69l.48,1.14c-.3.25-.68.45-1.13.6-.46.15-.91.23-1.37.23-1.06,0-1.9-.3-2.52-.9s-.92-1.43-.92-2.47c0-.66.13-1.25.4-1.77.27-.51.64-.91,1.12-1.19.48-.28,1.03-.42,1.64-.42.89,0,1.6.29,2.12.86.52.58.78,1.37.78,2.38v.46ZM667.42,143.16c-.27.28-.44.69-.5,1.22h3c-.02-.54-.15-.95-.4-1.23s-.59-.42-1.04-.42-.8.14-1.07.42Z"/>
        <path class="cls-1" d="M677.52,142.23c.44.44.66,1.12.66,2.04v3.94h-1.58v-1c-.15.35-.39.62-.71.81-.32.19-.7.29-1.12.29s-.83-.09-1.18-.27c-.35-.18-.63-.42-.84-.73-.2-.31-.31-.65-.31-1.04,0-.48.12-.85.37-1.13.24-.27.64-.47,1.19-.6s1.31-.19,2.27-.19h.33v-.31c0-.44-.09-.76-.29-.96-.19-.19-.51-.29-.95-.29-.34,0-.71.06-1.08.18-.38.12-.75.29-1.11.5l-.46-1.14c.36-.23.8-.42,1.31-.57.51-.15,1-.23,1.46-.23.91,0,1.59.22,2.03.66ZM676.18,146.68c.28-.3.42-.68.42-1.15v-.28h-.24c-.59,0-1.05.03-1.38.08s-.56.15-.7.28-.21.31-.21.54c0,.28.1.52.29.7.19.18.44.27.74.27.44,0,.8-.15,1.08-.44Z"/>
        <path class="cls-1" d="M683.8,147.03l-.08,1.23c-.27.03-.51.04-.73.04-.91,0-1.58-.21-2.02-.63s-.65-1.05-.65-1.88v-2.83h-1.25v-1.25h1.25v-1.94h1.66v1.94h1.71v1.25h-1.71v2.8c0,.87.4,1.3,1.21,1.3.2,0,.4-.01.61-.04Z"/>
        <path class="cls-1" d="M688.51,138.86h3.45c1.53,0,2.72.41,3.56,1.23.84.82,1.27,1.97,1.27,3.44s-.42,2.63-1.27,3.45c-.85.82-2.03,1.23-3.56,1.23h-3.45v-9.36ZM691.85,146.82c2.15,0,3.23-1.1,3.23-3.29s-1.08-3.28-3.23-3.28h-1.63v6.57h1.63Z"/>
        <path class="cls-1" d="M704.07,145.27h-4.42c.05.6.23,1.05.54,1.34s.75.44,1.33.44c.72,0,1.37-.23,1.96-.69l.48,1.14c-.3.25-.68.45-1.13.6-.46.15-.91.23-1.37.23-1.06,0-1.9-.3-2.52-.9s-.92-1.43-.92-2.47c0-.66.13-1.25.4-1.77.27-.51.64-.91,1.12-1.19.48-.28,1.03-.42,1.64-.42.89,0,1.6.29,2.12.86.52.58.78,1.37.78,2.38v.46ZM700.15,143.16c-.27.28-.44.69-.5,1.22h3c-.02-.54-.15-.95-.4-1.23s-.59-.42-1.04-.42-.8.14-1.07.42Z"/>
        <path class="cls-1" d="M709.26,147.03l-.08,1.23c-.27.03-.51.04-.73.04-.91,0-1.58-.21-2.02-.63s-.65-1.05-.65-1.88v-2.83h-1.25v-1.25h1.25v-1.94h1.66v1.94h1.71v1.25h-1.71v2.8c0,.87.4,1.3,1.21,1.3.2,0,.4-.01.61-.04Z"/>
        <path class="cls-1" d="M715.92,145.27h-4.42c.05.6.23,1.05.54,1.34s.75.44,1.33.44c.72,0,1.37-.23,1.96-.69l.48,1.14c-.3.25-.68.45-1.13.6-.46.15-.91.23-1.37.23-1.06,0-1.9-.3-2.52-.9s-.92-1.43-.92-2.47c0-.66.13-1.25.4-1.77.27-.51.64-.91,1.12-1.19.48-.28,1.03-.42,1.64-.42.89,0,1.6.29,2.12.86.52.58.78,1.37.78,2.38v.46ZM712,143.16c-.27.28-.44.69-.5,1.22h3c-.02-.54-.15-.95-.4-1.23s-.59-.42-1.04-.42-.8.14-1.07.42Z"/>
        <path class="cls-1" d="M718.47,147.91c-.5-.27-.88-.66-1.15-1.17-.26-.5-.4-1.09-.4-1.77s.14-1.27.42-1.79c.28-.52.67-.92,1.19-1.2.51-.28,1.11-.42,1.78-.42.46,0,.91.07,1.35.22s.79.34,1.06.59l-.48,1.17c-.27-.22-.56-.39-.87-.5-.31-.11-.61-.17-.91-.17-.58,0-1.02.18-1.34.54-.32.36-.48.87-.48,1.55s.16,1.18.48,1.53c.32.36.77.54,1.34.54.3,0,.6-.06.91-.17.31-.12.59-.28.87-.5l.48,1.16c-.28.26-.65.46-1.09.6s-.9.22-1.38.22c-.68,0-1.27-.14-1.77-.41Z"/>
        <path class="cls-1" d="M727.73,147.03l-.08,1.23c-.27.03-.51.04-.73.04-.91,0-1.58-.21-2.02-.63s-.65-1.05-.65-1.88v-2.83h-1.25v-1.25h1.25v-1.94h1.66v1.94h1.71v1.25h-1.71v2.8c0,.87.4,1.3,1.21,1.3.2,0,.4-.01.61-.04Z"/>
        <path class="cls-1" d="M728.6,138.71h1.83v1.63h-1.83v-1.63ZM728.7,148.21v-6.49h1.66v6.49h-1.66Z"/>
        <path class="cls-1" d="M733.28,147.91c-.5-.27-.89-.67-1.16-1.18s-.41-1.11-.41-1.79.14-1.28.41-1.79c.27-.51.66-.9,1.16-1.17.5-.27,1.08-.41,1.75-.41s1.25.14,1.75.41.88.67,1.16,1.17c.27.51.4,1.1.4,1.79s-.13,1.28-.4,1.79c-.27.51-.66.91-1.16,1.18s-1.08.41-1.75.41-1.25-.14-1.75-.41ZM736.25,146.5c.28-.35.42-.88.42-1.57s-.14-1.2-.42-1.56c-.28-.36-.69-.54-1.22-.54s-.94.18-1.23.54c-.29.36-.43.88-.43,1.56s.14,1.21.42,1.57.69.53,1.22.53.95-.18,1.23-.53Z"/>
        <path class="cls-1" d="M745.21,142.23c.38.44.57,1.11.57,2v3.98h-1.66v-3.89c0-.5-.1-.87-.29-1.1s-.49-.35-.9-.35c-.48,0-.86.15-1.15.45-.29.3-.43.7-.43,1.21v3.68h-1.66v-6.49h1.62v.97c.22-.36.52-.64.89-.84.37-.19.79-.29,1.26-.29.78,0,1.36.22,1.74.66Z"/>
        <path class="cls-1" d="M657.9,158.16c.44.44.66,1.12.66,2.04v3.94h-1.58v-1c-.15.35-.39.62-.71.81-.32.19-.7.29-1.12.29s-.83-.09-1.18-.27c-.35-.18-.63-.42-.84-.73-.2-.31-.31-.65-.31-1.04,0-.48.12-.85.37-1.13.24-.27.64-.47,1.19-.6s1.31-.19,2.27-.19h.33v-.31c0-.44-.09-.76-.29-.96-.19-.19-.51-.29-.95-.29-.34,0-.71.06-1.08.18-.38.12-.75.29-1.11.5l-.46-1.14c.36-.23.8-.42,1.31-.57.51-.15,1-.23,1.46-.23.91,0,1.59.22,2.03.66ZM656.57,162.61c.28-.3.42-.68.42-1.15v-.28h-.24c-.59,0-1.05.03-1.38.08s-.56.15-.7.28-.21.31-.21.54c0,.28.1.52.29.7.19.18.44.27.74.27.44,0,.8-.15,1.08-.44Z"/>
        <path class="cls-1" d="M665.76,158.16c.38.44.57,1.11.57,2v3.98h-1.66v-3.89c0-.5-.1-.87-.29-1.1s-.49-.35-.9-.35c-.48,0-.86.15-1.15.45-.29.3-.43.7-.43,1.21v3.68h-1.66v-6.49h1.62v.97c.22-.36.52-.64.89-.84.37-.19.79-.29,1.26-.29.78,0,1.36.22,1.74.66Z"/>
        <path class="cls-1" d="M674.28,154.79v9.36h-1.65v-1.05c-.2.36-.48.65-.84.85s-.79.31-1.25.31c-.56,0-1.06-.14-1.49-.43-.44-.28-.78-.68-1.02-1.2-.24-.52-.36-1.11-.36-1.79s.12-1.26.36-1.77c.24-.5.58-.89,1.02-1.17s.93-.41,1.5-.41c.47,0,.88.1,1.25.29.36.19.64.47.84.82v-3.82h1.66ZM672.21,162.42c.29-.36.43-.88.43-1.55s-.14-1.19-.43-1.55c-.29-.36-.69-.54-1.21-.54s-.94.18-1.23.53c-.29.35-.44.86-.44,1.53s.15,1.19.44,1.57c.29.37.7.56,1.22.56s.94-.18,1.23-.54Z"/>
        <path class="cls-1" d="M687.59,164.15h-1.86l-1.61-2.99c-.15-.28-.34-.48-.56-.6-.22-.11-.5-.17-.84-.17h-1.3v3.76h-1.69v-9.36h4.14c1.06,0,1.87.24,2.42.71.55.47.83,1.16.83,2.05,0,.72-.2,1.31-.6,1.77-.4.46-.97.77-1.71.91.5.13.89.48,1.19,1.05l1.57,2.87ZM685.06,158.71c.3-.24.45-.62.45-1.12s-.15-.89-.45-1.12c-.3-.23-.78-.35-1.42-.35h-2.23v2.96h2.23c.65,0,1.12-.12,1.42-.37Z"/>
        <path class="cls-1" d="M694.52,161.2h-4.42c.05.6.23,1.05.54,1.34s.75.44,1.33.44c.72,0,1.37-.23,1.96-.69l.48,1.14c-.3.25-.68.45-1.13.6-.46.15-.91.23-1.37.23-1.06,0-1.9-.3-2.52-.9s-.92-1.43-.92-2.47c0-.66.13-1.25.4-1.77.27-.51.64-.91,1.12-1.19.48-.28,1.03-.42,1.64-.42.89,0,1.6.29,2.12.86.52.58.78,1.37.78,2.38v.46ZM690.59,159.09c-.27.28-.44.69-.5,1.22h3c-.02-.54-.15-.95-.4-1.23s-.59-.42-1.04-.42-.8.14-1.07.42Z"/>
        <path class="cls-1" d="M696.67,164.04c-.48-.14-.89-.34-1.23-.61l.46-1.16c.69.5,1.48.76,2.38.76.38,0,.67-.06.87-.19.2-.12.3-.3.3-.53,0-.19-.07-.35-.21-.45-.14-.11-.38-.2-.74-.29l-1.06-.24c-.6-.13-1.05-.35-1.34-.65s-.44-.69-.44-1.17c0-.4.11-.75.34-1.06.23-.31.54-.54.94-.71.4-.17.87-.25,1.4-.25.46,0,.9.07,1.33.21.43.14.81.34,1.13.6l-.46,1.13c-.67-.49-1.35-.73-2.02-.73-.36,0-.65.07-.85.2-.2.13-.3.32-.3.56,0,.18.06.32.19.44.13.12.33.2.62.27l1.1.25c.65.14,1.12.37,1.42.67s.45.71.45,1.2c0,.6-.24,1.08-.73,1.43-.49.35-1.15.53-1.98.53-.58,0-1.1-.07-1.59-.21Z"/>
        <path class="cls-1" d="M707.53,157.92c.44.28.78.68,1.02,1.2s.37,1.11.37,1.79-.12,1.26-.37,1.77-.58.89-1.02,1.17-.93.41-1.5.41c-.46,0-.87-.1-1.24-.29-.36-.19-.64-.46-.84-.81v3.39h-1.66v-8.88h1.63v.98c.19-.36.48-.64.84-.84s.79-.3,1.25-.3c.56,0,1.05.14,1.49.42ZM706.82,162.43c.29-.36.44-.87.44-1.52s-.15-1.19-.44-1.57c-.29-.37-.7-.56-1.22-.56s-.94.18-1.23.54c-.29.36-.43.88-.43,1.55s.14,1.18.43,1.54c.29.36.7.54,1.23.54s.93-.18,1.22-.54Z"/>
        <path class="cls-1" d="M711.5,163.84c-.5-.27-.89-.67-1.16-1.18s-.41-1.11-.41-1.79.14-1.28.41-1.79c.27-.51.66-.9,1.16-1.17.5-.27,1.08-.41,1.75-.41s1.25.14,1.75.41.88.67,1.16,1.17c.27.51.4,1.1.4,1.79s-.13,1.28-.4,1.79c-.27.51-.66.91-1.16,1.18s-1.08.41-1.75.41-1.25-.14-1.75-.41ZM714.47,162.43c.28-.35.42-.88.42-1.57s-.14-1.2-.42-1.56c-.28-.36-.69-.54-1.22-.54s-.94.18-1.23.54c-.29.36-.43.88-.43,1.56s.14,1.21.42,1.57.69.53,1.22.53.95-.18,1.23-.53Z"/>
        <path class="cls-1" d="M723.43,158.16c.38.44.57,1.11.57,2v3.98h-1.66v-3.89c0-.5-.1-.87-.29-1.1s-.49-.35-.9-.35c-.48,0-.86.15-1.15.45-.29.3-.43.7-.43,1.21v3.68h-1.66v-6.49h1.62v.97c.22-.36.52-.64.89-.84.37-.19.79-.29,1.26-.29.78,0,1.36.22,1.74.66Z"/>
        <path class="cls-1" d="M726.49,164.04c-.48-.14-.89-.34-1.23-.61l.46-1.16c.69.5,1.48.76,2.38.76.38,0,.67-.06.87-.19.2-.12.3-.3.3-.53,0-.19-.07-.35-.21-.45-.14-.11-.38-.2-.74-.29l-1.06-.24c-.6-.13-1.05-.35-1.34-.65s-.44-.69-.44-1.17c0-.4.11-.75.34-1.06.23-.31.54-.54.94-.71.4-.17.87-.25,1.4-.25.46,0,.9.07,1.33.21.43.14.81.34,1.13.6l-.46,1.13c-.67-.49-1.35-.73-2.02-.73-.36,0-.65.07-.85.2-.2.13-.3.32-.3.56,0,.18.06.32.19.44.13.12.33.2.62.27l1.1.25c.65.14,1.12.37,1.42.67s.45.71.45,1.2c0,.6-.24,1.08-.73,1.43-.49.35-1.15.53-1.98.53-.58,0-1.1-.07-1.59-.21Z"/>
        <path class="cls-1" d="M737.82,161.2h-4.42c.05.6.23,1.05.54,1.34s.75.44,1.33.44c.72,0,1.37-.23,1.96-.69l.48,1.14c-.3.25-.68.45-1.13.6-.46.15-.91.23-1.37.23-1.06,0-1.9-.3-2.52-.9s-.92-1.43-.92-2.47c0-.66.13-1.25.4-1.77.27-.51.64-.91,1.12-1.19.48-.28,1.03-.42,1.64-.42.89,0,1.6.29,2.12.86.52.58.78,1.37.78,2.38v.46ZM733.9,159.09c-.27.28-.44.69-.5,1.22h3c-.02-.54-.15-.95-.4-1.23s-.59-.42-1.04-.42-.8.14-1.07.42Z"/>
      </g>
      <g>
        <path class="cls-1" d="M327.32,307.85v-7.95h-3.05v-1.41h7.82v1.41h-3.05v7.95h-1.71Z"/>
        <path class="cls-1" d="M336.34,302.58l-.97.09c-1.1.12-1.65.67-1.65,1.67v3.5h-1.66v-6.49h1.58v1.14c.34-.78,1.03-1.2,2.08-1.27l.5-.04.11,1.39Z"/>
        <path class="cls-1" d="M342.72,304.9h-4.42c.05.6.23,1.05.54,1.34s.75.44,1.33.44c.72,0,1.37-.23,1.96-.69l.48,1.14c-.3.25-.68.45-1.13.6-.46.15-.91.23-1.37.23-1.06,0-1.9-.3-2.52-.9s-.92-1.43-.92-2.47c0-.66.13-1.25.4-1.77.27-.51.64-.91,1.12-1.19.48-.28,1.03-.42,1.64-.42.89,0,1.6.29,2.12.86.52.58.78,1.37.78,2.38v.46ZM338.79,302.79c-.27.28-.44.69-.5,1.22h3c-.02-.54-.15-.95-.4-1.23s-.59-.42-1.04-.42-.8.14-1.07.42Z"/>
        <path class="cls-1" d="M348.89,301.86c.44.44.66,1.12.66,2.04v3.94h-1.58v-1c-.15.35-.39.62-.71.81-.32.19-.7.29-1.12.29s-.83-.09-1.18-.27c-.35-.18-.63-.42-.84-.73-.2-.31-.31-.65-.31-1.04,0-.48.12-.85.37-1.13.24-.27.64-.47,1.19-.6s1.31-.19,2.27-.19h.33v-.31c0-.44-.09-.76-.29-.96-.19-.19-.51-.29-.95-.29-.34,0-.71.06-1.08.18-.38.12-.75.29-1.11.5l-.46-1.14c.36-.23.8-.42,1.31-.57.51-.15,1-.23,1.46-.23.91,0,1.59.22,2.03.66ZM347.55,306.31c.28-.3.42-.68.42-1.15v-.28h-.24c-.59,0-1.05.03-1.38.08s-.56.15-.7.28-.21.31-.21.54c0,.28.1.52.29.7.19.18.44.27.74.27.44,0,.8-.15,1.08-.44Z"/>
        <path class="cls-1" d="M355.17,306.67l-.08,1.23c-.27.03-.51.04-.73.04-.91,0-1.58-.21-2.02-.63s-.65-1.05-.65-1.88v-2.83h-1.25v-1.25h1.25v-1.94h1.66v1.94h1.71v1.25h-1.71v2.8c0,.87.4,1.3,1.21,1.3.2,0,.4-.01.61-.04Z"/>
        <path class="cls-1" d="M365.5,301.85c.36.44.54,1.11.54,2.01v3.98h-1.66v-3.92c0-.5-.08-.86-.25-1.08-.17-.23-.44-.34-.81-.34-.44,0-.79.15-1.04.45-.25.3-.37.72-.37,1.26v3.62h-1.66v-3.92c0-.5-.08-.86-.25-1.08-.16-.23-.44-.34-.82-.34-.43,0-.77.15-1.02.45-.25.3-.37.72-.37,1.26v3.62h-1.66v-6.49h1.62v.92c.19-.35.46-.62.81-.8.35-.18.74-.27,1.18-.27.98,0,1.63.41,1.95,1.22.2-.38.5-.68.88-.9.38-.22.81-.33,1.27-.33.73,0,1.28.22,1.65.66Z"/>
        <path class="cls-1" d="M373.42,304.9h-4.42c.05.6.23,1.05.54,1.34s.75.44,1.33.44c.72,0,1.37-.23,1.96-.69l.48,1.14c-.3.25-.68.45-1.13.6-.46.15-.91.23-1.37.23-1.06,0-1.9-.3-2.52-.9s-.92-1.43-.92-2.47c0-.66.13-1.25.4-1.77.27-.51.64-.91,1.12-1.19.48-.28,1.03-.42,1.64-.42.89,0,1.6.29,2.12.86.52.58.78,1.37.78,2.38v.46ZM369.5,302.79c-.27.28-.44.69-.5,1.22h3c-.02-.54-.15-.95-.4-1.23s-.59-.42-1.04-.42-.8.14-1.07.42Z"/>
        <path class="cls-1" d="M380.29,301.86c.38.44.57,1.11.57,2v3.98h-1.66v-3.89c0-.5-.1-.87-.29-1.1s-.49-.35-.9-.35c-.48,0-.86.15-1.15.45-.29.3-.43.7-.43,1.21v3.68h-1.66v-6.49h1.62v.97c.22-.36.52-.64.89-.84.37-.19.79-.29,1.26-.29.78,0,1.36.22,1.74.66Z"/>
        <path class="cls-1" d="M386.47,306.67l-.08,1.23c-.27.03-.51.04-.73.04-.91,0-1.58-.21-2.02-.63s-.65-1.05-.65-1.88v-2.83h-1.25v-1.25h1.25v-1.94h1.66v1.94h1.71v1.25h-1.71v2.8c0,.87.4,1.3,1.21,1.3.2,0,.4-.01.61-.04Z"/>
        <path class="cls-1" d="M388.25,307.74c-.48-.14-.89-.34-1.23-.61l.46-1.16c.69.5,1.48.76,2.38.76.38,0,.67-.06.87-.19.2-.12.3-.3.3-.53,0-.19-.07-.35-.21-.45-.14-.11-.38-.2-.74-.29l-1.06-.24c-.6-.13-1.05-.35-1.34-.65s-.44-.69-.44-1.17c0-.4.11-.75.34-1.06.23-.31.54-.54.94-.71.4-.17.87-.25,1.4-.25.46,0,.9.07,1.33.21.43.14.81.34,1.13.6l-.46,1.13c-.67-.49-1.35-.73-2.02-.73-.36,0-.65.07-.85.2-.2.13-.3.32-.3.56,0,.18.06.32.19.44.13.12.33.2.62.27l1.1.25c.65.14,1.12.37,1.42.67s.45.71.45,1.2c0,.6-.24,1.08-.73,1.43-.49.35-1.15.53-1.98.53-.58,0-1.1-.07-1.59-.21Z"/>
        <path class="cls-1" d="M402.3,301.86c.44.44.66,1.12.66,2.04v3.94h-1.58v-1c-.15.35-.39.62-.71.81-.32.19-.7.29-1.12.29s-.83-.09-1.18-.27c-.35-.18-.63-.42-.84-.73-.2-.31-.31-.65-.31-1.04,0-.48.12-.85.37-1.13.24-.27.64-.47,1.19-.6s1.31-.19,2.27-.19h.33v-.31c0-.44-.09-.76-.29-.96-.19-.19-.51-.29-.95-.29-.34,0-.71.06-1.08.18-.38.12-.75.29-1.11.5l-.46-1.14c.36-.23.8-.42,1.31-.57.51-.15,1-.23,1.46-.23.91,0,1.59.22,2.03.66ZM400.96,306.31c.28-.3.42-.68.42-1.15v-.28h-.24c-.59,0-1.05.03-1.38.08s-.56.15-.7.28-.21.31-.21.54c0,.28.1.52.29.7.19.18.44.27.74.27.44,0,.8-.15,1.08-.44Z"/>
        <path class="cls-1" d="M410.16,301.86c.38.44.57,1.11.57,2v3.98h-1.66v-3.89c0-.5-.1-.87-.29-1.1s-.49-.35-.9-.35c-.48,0-.86.15-1.15.45-.29.3-.43.7-.43,1.21v3.68h-1.66v-6.49h1.62v.97c.22-.36.52-.64.89-.84.37-.19.79-.29,1.26-.29.78,0,1.36.22,1.74.66Z"/>
        <path class="cls-1" d="M418.68,298.49v9.36h-1.65v-1.05c-.2.36-.48.65-.84.85s-.79.31-1.25.31c-.56,0-1.06-.14-1.49-.43-.44-.28-.78-.68-1.02-1.2-.24-.52-.36-1.11-.36-1.79s.12-1.26.36-1.77c.24-.5.58-.89,1.02-1.17s.93-.41,1.5-.41c.47,0,.88.1,1.25.29.36.19.64.47.84.82v-3.82h1.66ZM416.6,306.12c.29-.36.43-.88.43-1.55s-.14-1.19-.43-1.55c-.29-.36-.69-.54-1.21-.54s-.94.18-1.23.53c-.29.35-.44.86-.44,1.53s.15,1.19.44,1.57c.29.37.7.56,1.22.56s.94-.18,1.23-.54Z"/>
        <path class="cls-1" d="M425.29,307.68c-.63-.19-1.16-.47-1.59-.82l.57-1.25c.45.35.93.6,1.43.76.5.16,1.04.24,1.63.24.65,0,1.14-.11,1.49-.34s.52-.54.52-.95c0-.35-.16-.62-.48-.81-.32-.19-.86-.36-1.61-.53-.78-.17-1.41-.36-1.9-.58-.49-.22-.85-.5-1.1-.85s-.37-.78-.37-1.31.15-1.04.45-1.47c.3-.43.73-.77,1.27-1.02.55-.24,1.18-.37,1.9-.37.65,0,1.28.1,1.87.3.59.2,1.08.47,1.46.82l-.57,1.25c-.83-.66-1.75-1-2.76-1-.6,0-1.08.12-1.43.37-.35.24-.52.58-.52,1.02,0,.36.16.64.46.84.31.19.84.38,1.58.54.79.18,1.43.37,1.92.59s.87.49,1.13.83c.26.34.39.76.39,1.27,0,.56-.15,1.05-.45,1.47-.3.42-.73.74-1.29.97-.56.23-1.22.34-1.99.34-.72,0-1.39-.1-2.02-.29Z"/>
        <path class="cls-1" d="M438.16,304.9h-4.42c.05.6.23,1.05.54,1.34s.75.44,1.33.44c.72,0,1.37-.23,1.96-.69l.48,1.14c-.3.25-.68.45-1.13.6-.46.15-.91.23-1.37.23-1.06,0-1.9-.3-2.52-.9s-.92-1.43-.92-2.47c0-.66.13-1.25.4-1.77.27-.51.64-.91,1.12-1.19.48-.28,1.03-.42,1.64-.42.89,0,1.6.29,2.12.86.52.58.78,1.37.78,2.38v.46ZM434.23,302.79c-.27.28-.44.69-.5,1.22h3c-.02-.54-.15-.95-.4-1.23s-.59-.42-1.04-.42-.8.14-1.07.42Z"/>
        <path class="cls-1" d="M440.7,307.54c-.5-.27-.88-.66-1.15-1.17-.26-.5-.4-1.09-.4-1.77s.14-1.27.42-1.79c.28-.52.67-.92,1.19-1.2.51-.28,1.11-.42,1.78-.42.46,0,.91.07,1.35.22s.79.34,1.06.59l-.48,1.17c-.27-.22-.56-.39-.87-.5-.31-.11-.61-.17-.91-.17-.58,0-1.02.18-1.34.54-.32.36-.48.87-.48,1.55s.16,1.18.48,1.53c.32.36.77.54,1.34.54.3,0,.6-.06.91-.17.31-.12.59-.28.87-.5l.48,1.16c-.28.26-.65.46-1.09.6s-.9.22-1.38.22c-.68,0-1.27-.14-1.77-.41Z"/>
        <path class="cls-1" d="M451.95,301.36v6.49h-1.62v-1c-.2.35-.48.63-.82.82-.34.19-.73.29-1.17.29-1.59,0-2.39-.89-2.39-2.68v-3.92h1.66v3.93c0,.46.09.8.28,1.02.19.22.48.33.88.33.46,0,.83-.15,1.11-.46.28-.31.42-.71.42-1.21v-3.61h1.66Z"/>
        <path class="cls-1" d="M457.95,302.58l-.97.09c-1.1.12-1.65.67-1.65,1.67v3.5h-1.66v-6.49h1.58v1.14c.34-.78,1.03-1.2,2.08-1.27l.5-.04.11,1.39Z"/>
        <path class="cls-1" d="M458.67,298.34h1.83v1.63h-1.83v-1.63ZM458.76,307.85v-6.49h1.66v6.49h-1.66Z"/>
        <path class="cls-1" d="M466.06,306.67l-.08,1.23c-.27.03-.51.04-.73.04-.91,0-1.58-.21-2.02-.63s-.65-1.05-.65-1.88v-2.83h-1.25v-1.25h1.25v-1.94h1.66v1.94h1.71v1.25h-1.71v2.8c0,.87.4,1.3,1.21,1.3.2,0,.4-.01.61-.04Z"/>
        <path class="cls-1" d="M471.69,301.37h1.63l-3.9,8.87h-1.67l1.18-2.64-2.71-6.23h1.75l1.83,4.58,1.89-4.58Z"/>
        <path class="cls-1" d="M334.8,314.42h4.09c1,0,1.78.25,2.34.75s.84,1.2.84,2.1-.28,1.61-.84,2.11c-.56.5-1.34.76-2.34.76h-2.38v3.64h-1.71v-9.36ZM338.68,318.83c1.18,0,1.77-.51,1.77-1.54,0-.52-.15-.91-.44-1.16-.29-.25-.73-.38-1.33-.38h-2.16v3.08h2.16Z"/>
        <path class="cls-1" d="M344.39,323.47c-.5-.27-.89-.67-1.16-1.18s-.41-1.11-.41-1.79.14-1.28.41-1.79c.27-.51.66-.9,1.16-1.17.5-.27,1.08-.41,1.75-.41s1.25.14,1.75.41.88.67,1.16,1.17c.27.51.4,1.1.4,1.79s-.13,1.28-.4,1.79c-.27.51-.66.91-1.16,1.18s-1.08.41-1.75.41-1.25-.14-1.75-.41ZM347.36,322.07c.28-.35.42-.88.42-1.57s-.14-1.2-.42-1.56c-.28-.36-.69-.54-1.22-.54s-.94.18-1.23.54c-.29.36-.43.88-.43,1.56s.14,1.21.42,1.57.69.53,1.22.53.95-.18,1.23-.53Z"/>
        <path class="cls-1" d="M351.62,323.67c-.48-.14-.89-.34-1.23-.61l.46-1.16c.69.5,1.48.76,2.38.76.38,0,.67-.06.87-.19.2-.12.3-.3.3-.53,0-.19-.07-.35-.21-.45-.14-.11-.38-.2-.74-.29l-1.06-.24c-.6-.13-1.05-.35-1.34-.65s-.44-.69-.44-1.17c0-.4.11-.75.34-1.06.23-.31.54-.54.94-.71.4-.17.87-.25,1.4-.25.46,0,.9.07,1.33.21.43.14.81.34,1.13.6l-.46,1.13c-.67-.49-1.35-.73-2.02-.73-.36,0-.65.07-.85.2-.2.13-.3.32-.3.56,0,.18.06.32.19.44.13.12.33.2.62.27l1.1.25c.65.14,1.12.37,1.42.67s.45.71.45,1.2c0,.6-.24,1.08-.73,1.43-.49.35-1.15.53-1.98.53-.58,0-1.1-.07-1.59-.21Z"/>
        <path class="cls-1" d="M361.12,322.6l-.08,1.23c-.27.03-.51.04-.73.04-.91,0-1.58-.21-2.02-.63s-.65-1.05-.65-1.88v-2.83h-1.25v-1.25h1.25v-1.94h1.66v1.94h1.71v1.25h-1.71v2.8c0,.87.4,1.3,1.21,1.3.2,0,.4-.01.61-.04Z"/>
        <path class="cls-1" d="M368.04,317.29v6.49h-1.62v-1c-.2.35-.48.63-.82.82-.34.19-.73.29-1.17.29-1.59,0-2.39-.89-2.39-2.68v-3.92h1.66v3.93c0,.46.09.8.28,1.02.19.22.48.33.88.33.46,0,.83-.15,1.11-.46.28-.31.42-.71.42-1.21v-3.61h1.66Z"/>
        <path class="cls-1" d="M374.04,318.51l-.97.09c-1.1.12-1.65.67-1.65,1.67v3.5h-1.66v-6.49h1.58v1.14c.34-.78,1.03-1.2,2.08-1.27l.5-.04.11,1.39Z"/>
        <path class="cls-1" d="M380.42,320.83h-4.42c.05.6.23,1.05.54,1.34s.75.44,1.33.44c.72,0,1.37-.23,1.96-.69l.48,1.14c-.3.25-.68.45-1.13.6-.46.15-.91.23-1.37.23-1.06,0-1.9-.3-2.52-.9s-.92-1.43-.92-2.47c0-.66.13-1.25.4-1.77.27-.51.64-.91,1.12-1.19.48-.28,1.03-.42,1.64-.42.89,0,1.6.29,2.12.86.52.58.78,1.37.78,2.38v.46ZM376.5,318.72c-.27.28-.44.69-.5,1.22h3c-.02-.54-.15-.95-.4-1.23s-.59-.42-1.04-.42-.8.14-1.07.42Z"/>
        <path class="cls-1" d="M387.31,323.31c-.67-.39-1.18-.95-1.55-1.67-.36-.73-.54-1.58-.54-2.55s.18-1.82.54-2.54c.36-.72.87-1.28,1.55-1.67.67-.39,1.46-.58,2.38-.58s1.7.19,2.37.58c.67.39,1.18.94,1.54,1.67.36.72.54,1.57.54,2.54s-.18,1.82-.54,2.55c-.36.73-.88,1.28-1.55,1.67-.67.39-1.45.58-2.36.58s-1.7-.19-2.37-.58ZM391.7,321.64c.48-.59.72-1.44.72-2.55s-.24-1.95-.72-2.54c-.48-.59-1.15-.88-2.01-.88s-1.54.29-2.02.88c-.48.59-.72,1.44-.72,2.54s.24,1.96.72,2.55c.48.59,1.16.89,2.02.89s1.53-.3,2.01-.89Z"/>
        <path class="cls-1" d="M400.94,317.55c.44.28.78.68,1.02,1.2s.37,1.11.37,1.79-.12,1.26-.37,1.77-.58.89-1.02,1.17-.93.41-1.5.41c-.46,0-.87-.1-1.24-.29-.36-.19-.64-.46-.84-.81v3.39h-1.66v-8.88h1.63v.98c.19-.36.48-.64.84-.84s.79-.3,1.25-.3c.56,0,1.05.14,1.49.42ZM400.23,322.06c.29-.36.44-.87.44-1.52s-.15-1.19-.44-1.57c-.29-.37-.7-.56-1.22-.56s-.94.18-1.23.54c-.29.36-.43.88-.43,1.55s.14,1.18.43,1.54c.29.36.7.54,1.23.54s.93-.18,1.22-.54Z"/>
        <path class="cls-1" d="M407.58,322.6l-.08,1.23c-.27.03-.51.04-.73.04-.91,0-1.58-.21-2.02-.63s-.65-1.05-.65-1.88v-2.83h-1.25v-1.25h1.25v-1.94h1.66v1.94h1.71v1.25h-1.71v2.8c0,.87.4,1.3,1.21,1.3.2,0,.4-.01.61-.04Z"/>
        <path class="cls-1" d="M408.46,314.27h1.83v1.63h-1.83v-1.63ZM408.55,323.78v-6.49h1.66v6.49h-1.66Z"/>
        <path class="cls-1" d="M421.28,317.78c.36.44.54,1.11.54,2.01v3.98h-1.66v-3.92c0-.5-.08-.86-.25-1.08-.17-.23-.44-.34-.81-.34-.44,0-.79.15-1.04.45-.25.3-.37.72-.37,1.26v3.62h-1.66v-3.92c0-.5-.08-.86-.25-1.08-.16-.23-.44-.34-.82-.34-.43,0-.77.15-1.02.45-.25.3-.37.72-.37,1.26v3.62h-1.66v-6.49h1.62v.92c.19-.35.46-.62.81-.8.35-.18.74-.27,1.18-.27.98,0,1.63.41,1.95,1.22.2-.38.5-.68.88-.9.38-.22.81-.33,1.27-.33.73,0,1.28.22,1.65.66Z"/>
        <path class="cls-1" d="M423.42,314.27h1.83v1.63h-1.83v-1.63ZM423.51,323.78v-6.49h1.66v6.49h-1.66Z"/>
        <path class="cls-1" d="M428.61,322.53h3.69v1.25h-5.66v-1.15l3.53-4.09h-3.46v-1.25h5.46v1.13l-3.56,4.12Z"/>
        <path class="cls-1" d="M438.41,317.79c.44.44.66,1.12.66,2.04v3.94h-1.58v-1c-.15.35-.39.62-.71.81-.32.19-.7.29-1.12.29s-.83-.09-1.18-.27c-.35-.18-.63-.42-.84-.73-.2-.31-.31-.65-.31-1.04,0-.48.12-.85.37-1.13.24-.27.64-.47,1.19-.6s1.31-.19,2.27-.19h.33v-.31c0-.44-.09-.76-.29-.96-.19-.19-.51-.29-.95-.29-.34,0-.71.06-1.08.18-.38.12-.75.29-1.11.5l-.46-1.14c.36-.23.8-.42,1.31-.57.51-.15,1-.23,1.46-.23.91,0,1.59.22,2.03.66ZM437.07,322.25c.28-.3.42-.68.42-1.15v-.28h-.24c-.59,0-1.05.03-1.38.08s-.56.15-.7.28-.21.31-.21.54c0,.28.1.52.29.7.19.18.44.27.74.27.44,0,.8-.15,1.08-.44Z"/>
        <path class="cls-1" d="M444.69,322.6l-.08,1.23c-.27.03-.51.04-.73.04-.91,0-1.58-.21-2.02-.63s-.65-1.05-.65-1.88v-2.83h-1.25v-1.25h1.25v-1.94h1.66v1.94h1.71v1.25h-1.71v2.8c0,.87.4,1.3,1.21,1.3.2,0,.4-.01.61-.04Z"/>
        <path class="cls-1" d="M445.56,314.27h1.83v1.63h-1.83v-1.63ZM445.65,323.78v-6.49h1.66v6.49h-1.66Z"/>
        <path class="cls-1" d="M450.24,323.47c-.5-.27-.89-.67-1.16-1.18s-.41-1.11-.41-1.79.14-1.28.41-1.79c.27-.51.66-.9,1.16-1.17.5-.27,1.08-.41,1.75-.41s1.25.14,1.75.41.88.67,1.16,1.17c.27.51.4,1.1.4,1.79s-.13,1.28-.4,1.79c-.27.51-.66.91-1.16,1.18s-1.08.41-1.75.41-1.25-.14-1.75-.41ZM453.21,322.07c.28-.35.42-.88.42-1.57s-.14-1.2-.42-1.56c-.28-.36-.69-.54-1.22-.54s-.94.18-1.23.54c-.29.36-.43.88-.43,1.56s.14,1.21.42,1.57.69.53,1.22.53.95-.18,1.23-.53Z"/>
        <path class="cls-1" d="M462.17,317.79c.38.44.57,1.11.57,2v3.98h-1.66v-3.89c0-.5-.1-.87-.29-1.1s-.49-.35-.9-.35c-.48,0-.86.15-1.15.45-.29.3-.43.7-.43,1.21v3.68h-1.66v-6.49h1.62v.97c.22-.36.52-.64.89-.84.37-.19.79-.29,1.26-.29.78,0,1.36.22,1.74.66Z"/>
      </g>
      <path class="cls-5" d="M119.53,108.89c-.1-.1-.24-.16-.38-.16h-2.03v-2.78c0-.14-.06-.28-.16-.38s-.24-.16-.38-.16h-2.58v-8.21h3.54c.14,0,.28-.06.38-.16.1-.1.16-.24.16-.38v-2.08c0-.22-.14-.42-.35-.5l-4.98-1.81c-.41-2.07-1.53-3.89-3.09-5.19-1.19-.99-2.63-1.68-4.21-1.96v-1.33h4.16c.14,0,.28-.06.38-.16s.16-.24.16-.38v-3.38c0-.14-.06-.28-.16-.38s-.24-.16-.38-.16h-4.16c-.01-.42-.19-.81-.47-1.09-.29-.29-.69-.47-1.13-.47h0c-.44,0-.84.18-1.13.47-.29.29-.47.69-.47,1.13v5.73c-1.6.29-3.06.99-4.26,2-1.53,1.3-2.63,3.09-3.05,5.14l-4.99,1.83c-.21.08-.35.28-.35.5v2.08c0,.14.06.28.16.38.1.1.24.16.38.16h3.54v8.21h-2.58c-.14,0-.28.06-.38.16-.1.1-.16.24-.16.38v2.78h-2.03c-.14,0-.28.06-.38.16-.1.1-.16.24-.16.38v3.22c0,.14.06.28.16.38s.24.16.38.16h30.64c.14,0,.28-.06.38-.16s.16-.24.16-.38v-3.22c0-.14-.06-.28-.16-.38ZM110.52,105.38v-8.04h2.42v8.04h-2.42ZM109.46,105.42h-3.35v-8.21h3.35v8.21ZM105.04,105.38h-2.42v-8.04h2.42v8.04ZM105.55,80.43h3.51v2.32h-3.51v-2.32ZM103.29,79.41c0-.15.06-.28.16-.38.1-.1.23-.16.38-.16h0c.15,0,.28.06.38.16.1.1.16.23.16.38v5.61c-.18-.01-.36-.02-.54-.02-.18,0-.36,0-.54.02v-5.61ZM98.66,87.95c1.4-1.18,3.2-1.89,5.17-1.89,1.95,0,3.74.7,5.13,1.86,1.22,1.01,2.13,2.38,2.57,3.94l-7.58-2.76c-.12-.04-.25-.04-.36,0l-7.46,2.73c.45-1.54,1.34-2.88,2.53-3.89ZM90.66,94.97l13.12-4.81,13.23,4.81v1.18h-26.35v-1.18ZM101.56,97.21v8.21h-3.35v-8.21h3.35ZM97.14,105.38h-2.42v-8.04h2.42v8.04ZM91.61,106.49h24.45v2.16h-24.45v-2.16ZM89.04,109.8h29.58v2.16h-29.58v-2.16Z"/>
      <g>
        <path class="cls-5" d="M710.12,108.49l-7.95-7.95c-.2-.2-.56-.2-.76,0l-.34.34-1.02-1.02c1.33-1.94,2.11-4.2,2.27-6.58h.99c.32,0,.57-.26.57-.57s-.26-.57-.57-.57h-.96c-.05-3.49-1.43-6.76-3.91-9.24-2.45-2.45-5.61-3.74-8.82-3.89v-.65c0-.32-.26-.57-.57-.57s-.57.26-.57.57v.64c-3.25.13-6.45,1.42-8.93,3.89s-3.85,5.88-3.9,9.24h-.86c-.32,0-.57.26-.57.57s.26.57.57.57h.89c.22,3.1,1.5,6.14,3.87,8.51,2.4,2.4,5.55,3.77,8.93,3.9v1.19c0,.32.26.57.57.57s.57-.26.57-.57v-1.19c2.49-.11,4.86-.91,6.89-2.29l1.02,1.02-.34.34c-.21.21-.21.55,0,.76l7.95,7.95c.67.67,1.55,1.03,2.49,1.03h0c.94,0,1.83-.37,2.49-1.03.67-.67,1.03-1.55,1.03-2.49s-.37-1.83-1.03-2.49ZM697.68,83.67c2.27,2.27,3.54,5.27,3.59,8.47h-1.66c-.05-2.65-1.08-5.28-3.1-7.3-1.91-1.91-4.38-2.94-6.89-3.09v-1.66c2.93.15,5.82,1.34,8.06,3.58ZM697.38,93.29h1.11c-.21,2.12-1.12,4.19-2.75,5.82-1.7,1.7-3.89,2.62-6.13,2.77v-.91c0-.32-.26-.57-.57-.57s-.57.26-.57.57v.92c-2.27-.12-4.5-1.05-6.23-2.78-1.62-1.62-2.54-3.69-2.75-5.82h1.22c.32,0,.57-.26.57-.57s-.26-.57-.57-.57h-1.26c.05-2.37.98-4.73,2.79-6.54,1.73-1.73,3.96-2.65,6.23-2.78v1.47c0,.32.26.57.57.57s.57-.26.57-.57v-1.47c2.23.15,4.42,1.07,6.13,2.77,1.81,1.81,2.74,4.17,2.79,6.54h-1.15c-.32,0-.57.26-.57.57s.26.57.57.57ZM680.31,83.67c2.26-2.26,5.19-3.45,8.16-3.58v1.66c-2.54.12-5.05,1.15-6.99,3.09-2.02,2.02-3.05,4.65-3.1,7.3h-1.66c.05-3.07,1.25-6.13,3.59-8.47ZM680.31,101.04c-2.16-2.16-3.34-4.92-3.55-7.75h1.66c.21,2.4,1.23,4.74,3.06,6.58,1.94,1.94,4.45,2.97,6.99,3.09v1.66c-3.09-.13-5.97-1.39-8.16-3.58ZM689.62,102.95c2.51-.15,4.98-1.17,6.89-3.09,1.83-1.83,2.85-4.18,3.06-6.58h1.67c-.17,2.23-.93,4.34-2.21,6.14-.04.02-.07.05-.1.08-.07.07-.12.16-.14.26-.34.44-.71.87-1.11,1.27-.4.4-.83.77-1.27,1.11-.09.02-.18.07-.26.14-.03.03-.06.07-.08.1-1.89,1.34-4.11,2.11-6.45,2.23v-1.67ZM698.29,103.66l-.91-.91c.37-.3.72-.62,1.06-.95.34-.34.66-.69.95-1.06l.91.91-.13.13-1.88,1.88ZM709.35,112.71c-.46.46-1.08.72-1.73.72s-1.27-.25-1.73-.72l-7.57-7.57,3.46-3.46,7.57,7.57c.46.46.72,1.08.72,1.73s-.25,1.27-.72,1.73Z"/>
        <path class="cls-5" d="M695.75,95.69l-5.37-8.9c-.14-.22-.33-.4-.54-.52-.21-.12-.45-.17-.68-.17-.23,0-.46.05-.67.16-.21.11-.4.28-.53.49h0l-5.71,8.9c-.15.24-.23.51-.23.77,0,.37.15.73.4.99.13.13.28.24.45.32.17.08.37.12.57.12h11.08c.2,0,.4-.04.57-.12.52-.23.85-.75.85-1.31,0-.25-.07-.5-.21-.73h0ZM694.73,96.62s-.05.05-.09.06c-.03.01-.07.02-.11.02h-11.08s-.08,0-.11-.02c-.05-.02-.09-.06-.12-.1-.03-.05-.05-.1-.05-.15,0-.05.01-.09.05-.15h0s5.71-8.9,5.71-8.9l-.48-.31.48.31s.06-.08.1-.1c.04-.02.09-.03.13-.03.05,0,.1.01.14.03.04.02.07.05.1.1l5.37,8.9h0c.03.05.04.1.04.14,0,.07-.03.14-.08.2Z"/>
        <path class="cls-5" d="M689,89.15c-.32,0-.57.26-.57.57v3.56c0,.32.26.57.57.57s.57-.26.57-.57v-3.56c0-.32-.26-.57-.57-.57Z"/>
        <path class="cls-5" d="M689,94.41c-.32,0-.57.26-.57.57v.38c0,.32.26.57.57.57s.57-.26.57-.57v-.38c0-.32-.26-.57-.57-.57Z"/>
      </g>
      <g>
        <path class="cls-5" d="M403.18,103.49c-1.03,0-1.88.84-1.88,1.88,0,1.03.84,1.88,1.88,1.88,1.04,0,1.88-.84,1.88-1.88,0-1.04-.84-1.88-1.88-1.88ZM403.67,105.86c-.13.13-.3.2-.49.2-.38,0-.69-.31-.69-.69,0-.38.31-.69.69-.69.38,0,.69.31.69.69,0,.19-.08.36-.2.49Z"/>
        <polygon class="cls-5" points="416.61 108.41 416.61 108.41 416.61 108.41 416.61 108.41"/>
        <path class="cls-5" d="M416.6,106.12l-11.45-19.83h0c-.42-.72-1.14-1.14-1.97-1.14-.69,0-1.3.29-1.73.79-.05-.1-.1-.21-.15-.31h0s-.03-.08-.03-.12c0-.06.02-.12.08-.18l1.47-1.47c.27-.27.42-.64.42-1.02,0-.39-.15-.75-.42-1.02l-2.03-2.03c-.27-.27-.64-.42-1.02-.42-.39,0-.75.15-1.02.42l-1.47,1.47c-.06.05-.12.08-.18.08-.04,0-.08,0-.12-.03h0s0,0,0,0c-.44-.22-.9-.41-1.36-.57h0c-.06-.02-.1-.05-.13-.09-.03-.04-.05-.09-.05-.15v-2.07c0-.8-.65-1.45-1.45-1.45h-2.87c-.8,0-1.45.65-1.45,1.45v2.07c0,.06-.02.11-.05.15-.03.04-.07.07-.13.09h0c-.47.15-.92.34-1.36.57h0s0,0,0,0c-.04.02-.08.03-.12.03-.06,0-.12-.02-.18-.08l-1.47-1.47c-.27-.27-.64-.42-1.02-.42-.39,0-.75.15-1.02.42h0s-2.03,2.03-2.03,2.03c-.27.27-.42.64-.42,1.02,0,.39.15.75.42,1.02l1.47,1.47c.05.06.08.12.08.18,0,.04,0,.08-.03.12h0s0,0,0,0c-.22.44-.41.89-.57,1.36h0c-.02.06-.05.1-.09.13-.04.03-.09.05-.15.05h-2.07c-.8,0-1.45.65-1.45,1.45v2.87c0,.8.65,1.45,1.45,1.45h2.07c.06,0,.11.02.15.05.04.03.07.07.09.13h0c.15.46.34.92.57,1.36h0s.03.08.03.12c0,.06-.02.12-.08.18l-1.47,1.47c-.27.27-.42.64-.42,1.02,0,.39.15.75.42,1.02l2.03,2.03c.27.27.64.42,1.02.42.39,0,.75-.15,1.02-.42l1.47-1.47c.06-.05.12-.08.18-.08.04,0,.08,0,.12.03.44.22.89.41,1.36.57h0c.06.02.1.05.13.09.03.04.05.09.05.15v2.07c0,.8.65,1.45,1.45,1.45h.36l-1.72,2.98c-.21.36-.31.75-.31,1.14,0,.39.11.78.31,1.14.42.72,1.14,1.14,1.97,1.14h22.9c.83,0,1.56-.42,1.97-1.14h0c.21-.36.31-.75.31-1.14,0-.39-.11-.78-.31-1.14ZM391.11,101.96c-.14,0-.26-.12-.26-.26v-2.07c0-.63-.39-1.18-1-1.37h0c-.4-.13-.81-.3-1.19-.49h0c-.21-.11-.44-.16-.66-.16-.37,0-.74.15-1.02.43l-1.47,1.47s-.11.07-.18.07c-.07,0-.14-.03-.18-.07l-2.03-2.03s-.07-.11-.07-.18c0-.07.03-.14.07-.18l1.47-1.47c.28-.28.43-.64.43-1.02,0-.22-.05-.45-.16-.66-.2-.39-.36-.79-.5-1.2-.2-.6-.74-1-1.37-1h-2.08c-.14,0-.26-.12-.26-.26v-2.87c0-.14.12-.26.26-.26h2.07c.63,0,1.18-.39,1.37-1,.13-.41.3-.81.5-1.2h0c.11-.21.16-.44.16-.66,0-.37-.15-.74-.43-1.02l-1.47-1.47s-.07-.11-.07-.18c0-.07.03-.14.07-.18l2.03-2.03s.11-.07.18-.07c.07,0,.14.03.18.07l1.47,1.47c.28.28.64.43,1.02.43.22,0,.45-.05.66-.16h0c.39-.2.79-.36,1.2-.5.6-.2,1-.74,1-1.37v-2.07c0-.14.12-.26.26-.26h2.87c.14,0,.26.12.26.26v2.07c0,.63.39,1.18,1,1.37.41.13.81.3,1.2.5h0c.21.11.44.16.66.16.37,0,.74-.15,1.02-.43l1.47-1.47s.11-.07.18-.07c.07,0,.14.03.18.07l2.03,2.03h0s.08.11.08.18c0,.07-.03.14-.07.18l-1.47,1.47c-.28.28-.43.64-.43,1.02,0,.22.05.45.16.66h0c.17.33.31.68.44,1.02l-1.72,2.99s0-.08,0-.12c0-3.54-2.87-6.41-6.41-6.41-3.54,0-6.41,2.87-6.41,6.41,0,3.54,2.87,6.41,6.41,6.41,1.21,0,2.34-.34,3.31-.93l-3.71,6.42h-1.05ZM397.77,90.06c0,1.44-.59,2.75-1.53,3.69-.95.95-2.25,1.53-3.69,1.53-1.44,0-2.75-.59-3.69-1.53-.95-.95-1.53-2.25-1.53-3.69,0-1.44.59-2.75,1.53-3.69.95-.95,2.25-1.53,3.69-1.53,1.44,0,2.75.59,3.69,1.53.95.95,1.53,2.25,1.53,3.69ZM415.58,107.81h0c-.21.36-.53.54-.95.55h-22.9c-.41,0-.74-.19-.95-.55-.1-.18-.15-.36-.15-.55,0-.18.05-.37.15-.55l11.45-19.84h0c.21-.36.53-.54.95-.55.41,0,.74.19.95.55l11.45,19.84c.1.18.15.36.15.55,0,.18-.05.37-.15.54Z"/>
        <path class="cls-5" d="M404.67,92.49s0,0,0,0c0,0,0,0,0,0h0c-.38-.41-.93-.64-1.49-.64-.56,0-1.11.23-1.5.64h0c-.34.36-.53.83-.53,1.32,0,.03,0,.06,0,.09h0s.36,6.59.36,6.59h0c.03.49.25.88.56,1.13.31.26.71.38,1.1.38.39,0,.79-.13,1.1-.38.31-.25.54-.64.56-1.13h0s.36-6.59.36-6.59h0s0,0,0,0c0-.04,0-.07,0-.11,0-.48-.19-.95-.53-1.31h0ZM404.02,93.83l-.36,6.59c0,.1-.04.17-.07.22-.06.08-.15.12-.23.15-.08.02-.16.03-.18.03-.02,0-.15,0-.26-.06-.06-.03-.11-.06-.15-.11-.04-.05-.07-.12-.07-.22l-.36-6.59v-.04c0-.18.07-.35.2-.5.16-.17.4-.27.64-.27.24,0,.47.1.64.27.13.15.21.32.21.5v.03s0,0,0,0Z"/>
      </g>
      <path class="cls-6" d="M385.11,249.94c5.41-.02,10.52-2.5,13.89-6.74,3.37,4.24,8.48,6.72,13.89,6.74.96,0,1.92-.08,2.87-.24-.74,19.39-8.44,26.59-16.76,31.36-8.32-4.77-16.02-11.97-16.76-31.36.95.16,1.91.24,2.87.24ZM398.69,282.35c.19.11.44.11.63,0,5.79-3.27,9.78-6.99,12.56-11.71,3.24-5.5,4.94-12.6,5.19-21.7,0-.2-.08-.39-.23-.51-.15-.12-.35-.17-.55-.13-6.39,1.34-12.97-1.22-16.77-6.52-.21-.29-.61-.35-.9-.14-.05.04-.1.09-.14.14-3.8,5.31-10.38,7.86-16.77,6.52-.19-.04-.39,0-.55.13-.15.13-.24.32-.23.51.25,9.1,1.95,16.2,5.19,21.7,2.78,4.72,6.77,8.43,12.56,11.71ZM399,265.85c.1,0,.18-.08.18-.18s-.08-.18-.18-.18-.18.08-.18.18c0,.1.08.18.18.18ZM399,264.21c-.81,0-1.46.65-1.46,1.46s.65,1.46,1.46,1.46,1.46-.65,1.46-1.46c0,0,0,0,0,0,0-.81-.65-1.46-1.46-1.46ZM399.56,256.43c.02-.15-.03-.29-.13-.4-.1-.11-.24-.18-.39-.17h-.08c-.29,0-.52.23-.52.52,0,.02,0,.04,0,.05l.56,5.2.56-5.2ZM399.04,254.58h-.08c-.99,0-1.8.8-1.8,1.79,0,.07,0,.13.01.2l.69,6.45c.07.63.63,1.08,1.26,1.01.53-.06.95-.48,1.01-1.01l.69-6.45c.11-.98-.6-1.87-1.59-1.98-.07,0-.13-.01-.2-.01h0ZM389.21,267.54c.09.16.26.26.44.26h18.7c.18,0,.35-.1.44-.26.1-.15.1-.35,0-.5l-9.35-16.2h0c-.14-.24-.45-.32-.69-.18-.08.04-.14.11-.18.18l-9.35,16.2c-.1.15-.1.35,0,.5ZM409.9,268.18c.32-.55.32-1.23,0-1.78l-9.35-16.2c-.5-.85-1.59-1.14-2.44-.65-.27.16-.49.38-.65.65l-9.35,16.2c-.49.86-.2,1.95.66,2.44.27.16.58.24.89.24h18.7c.64,0,1.23-.34,1.55-.9Z"/>
    </g>
  </g>
</svg>