<?xml version="1.0" standalone="no"?>
<!DOCTYPE svg PUBLIC "-//W3C//DTD SVG 20010904//EN"
 "http://www.w3.org/TR/2001/REC-SVG-20010904/DTD/svg10.dtd">
<svg version="1.0" xmlns="http://www.w3.org/2000/svg"
 width="260.000000pt" height="260.000000pt" viewBox="0 0 260.000000 260.000000"
 preserveAspectRatio="xMidYMid meet">
<metadata>
Created by potrace 1.14, written by Peter Selinger 2001-2017
</metadata>
<g transform="translate(0.000000,260.000000) scale(0.100000,-0.100000)"
fill="#000000" stroke="none">
<path d="M1933 2022 c-12 -9 -61 -93 -108 -187 -47 -93 -90 -176 -96 -183 -6
-8 -20 -11 -30 -9 -11 3 -21 1 -24 -4 -3 -4 -16 -4 -29 1 -13 5 -26 7 -29 4
-2 -2 -19 -4 -38 -4 -30 0 -105 0 -134 -1 -9 0 -52 0 -105 1 -160 1 -407 1
-415 0 -5 -2 -14 -2 -20 0 -5 1 -38 2 -72 2 -55 1 -67 5 -93 29 -16 16 -27 29
-24 29 7 0 -33 57 -63 90 -13 14 -26 33 -29 43 -3 9 -9 17 -14 17 -5 0 -21 20
-36 45 -14 25 -30 42 -35 39 -5 -3 -9 3 -9 14 0 19 -33 55 -60 64 -34 12 -52
-17 -56 -94 -2 -40 -6 -93 -9 -118 -3 -25 -8 -79 -11 -120 -10 -141 -12 -175
-14 -175 -1 0 -3 -25 -5 -55 -4 -56 -22 -207 -31 -270 -3 -19 -7 -46 -8 -60
-2 -14 -4 -31 -4 -39 -2 -13 -13 -13 -137 4 -44 7 -68 -15 -55 -49 5 -14 15
-27 22 -28 14 -1 30 -5 38 -8 3 -1 16 -3 30 -6 97 -15 92 -13 85 -42 -4 -15
-7 -35 -7 -44 1 -24 -20 -38 -53 -34 -36 3 -76 -21 -73 -43 4 -24 37 -45 72
-45 21 -1 30 -6 28 -15 -2 -7 -5 -34 -8 -60 -6 -51 -11 -86 -14 -86 -1 0 -3
-9 -4 -20 -6 -38 -25 -131 -75 -363 -28 -128 -51 -235 -51 -238 0 -2 475 -4
1055 -4 l1055 0 0 68 c0 37 1 74 1 82 0 20 -9 309 -16 492 l-5 147 87 -2 c56
-1 93 2 100 10 7 6 17 13 23 15 18 6 -2 48 -26 54 -13 3 -59 7 -101 8 -43 1
-82 4 -88 8 -5 3 -9 20 -9 37 2 46 3 51 12 50 4 -1 9 0 12 1 5 2 8 2 99 14 30
4 64 12 77 16 12 5 25 6 28 3 3 -3 12 -1 19 5 8 7 16 9 19 6 3 -2 8 6 10 20 7
37 -22 60 -64 52 -18 -3 -53 -8 -78 -12 -25 -3 -52 -8 -60 -10 -8 -3 -32 -8
-52 -10 -34 -4 -38 -2 -39 18 0 13 -3 39 -5 58 -2 19 -6 53 -9 75 -7 64 -13
100 -15 100 -4 0 -10 42 -12 82 -2 24 -5 43 -8 43 -3 0 -7 16 -8 37 -2 20 -5
40 -8 45 -3 4 -8 20 -10 35 -14 78 -35 166 -43 181 -4 9 -6 23 -4 30 3 6 1 12
-4 12 -4 0 -9 11 -10 25 -4 44 -6 55 -12 55 -4 0 -8 11 -9 26 -1 14 -6 33 -11
43 -6 10 -12 31 -15 46 -3 16 -16 39 -28 52 -22 21 -24 21 -45 5z"/>
</g>
</svg>
