<?xml version="1.0" standalone="no"?>
<!DOCTYPE svg PUBLIC "-//W3C//DTD SVG 20010904//EN"
 "http://www.w3.org/TR/2001/REC-SVG-20010904/DTD/svg10.dtd">
<svg version="1.0" xmlns="http://www.w3.org/2000/svg"
 width="700.000000pt" height="700.000000pt" viewBox="0 0 700.000000 700.000000"
 preserveAspectRatio="xMidYMid meet">
<metadata>
Created by potrace 1.14, written by Peter Selinger 2001-2017
</metadata>
<g transform="translate(0.000000,700.000000) scale(0.100000,-0.100000)"
fill="#000000" stroke="none">
<path d="M4038 5896 c-348 -157 -576 -396 -643 -674 l-18 -73 -25 43 c-33 57
-128 148 -216 207 -120 81 -286 153 -286 125 0 -5 -15 -33 -34 -61 l-34 -52
50 -38 c85 -65 157 -171 192 -285 19 -62 18 -80 -5 -84 -72 -12 -200 -44 -299
-76 -476 -151 -907 -448 -1222 -843 -192 -242 -365 -575 -445 -858 -20 -72
-31 -96 -41 -92 -29 11 -120 19 -207 18 -390 -5 -732 -304 -795 -696 -13 -86
-6 -246 15 -327 68 -262 251 -470 499 -569 44 -17 93 -34 110 -36 17 -3 45 -8
61 -12 92 -19 275 -5 388 30 44 14 49 14 54 -1 29 -85 205 -411 259 -480 1 -2
31 16 66 40 35 25 182 125 328 223 146 97 271 183 278 190 11 10 5 24 -32 77
-102 145 -194 379 -235 593 -81 423 -21 829 160 1097 153 225 464 383 734 372
50 -2 101 -6 115 -9 14 -3 36 -7 50 -10 149 -27 349 -144 503 -295 89 -87 101
-95 137 -96 36 0 46 6 137 96 142 139 287 229 448 279 249 77 525 28 750 -134
216 -156 339 -385 385 -716 18 -123 15 -386 -4 -485 -3 -12 -7 -37 -10 -55 -5
-31 -17 -90 -32 -159 -27 -123 -130 -359 -207 -474 -26 -38 -47 -71 -46 -75 0
-8 96 -71 108 -71 5 0 11 -4 13 -8 2 -5 128 -92 281 -195 l278 -186 55 84 c54
84 151 266 192 362 l22 52 42 -15 c120 -42 297 -52 436 -24 277 57 523 280
610 555 33 105 41 159 38 280 -4 162 -49 301 -143 443 -177 266 -534 407 -852
337 -24 -5 -31 -3 -31 9 0 16 -74 247 -90 281 -5 11 -23 54 -40 95 -237 572
-739 1070 -1336 1325 -206 88 -494 168 -668 184 -8 1 -1 194 8 222 3 8 7 28 9
44 8 50 47 157 79 215 31 57 102 147 147 189 23 20 111 93 119 97 4 2 -53 144
-58 144 -3 0 -48 -20 -102 -44z m-3124 -3346 c34 -12 34 -14 41 -140 7 -144
15 -242 21 -251 7 -12 -53 -50 -99 -64 -103 -30 -216 17 -275 115 -23 38 -27
56 -27 121 0 67 4 81 30 125 65 104 186 141 309 94z m5387 -5 c42 -22 94 -80
112 -125 20 -52 17 -154 -7 -198 -55 -106 -160 -153 -284 -128 -32 7 -92 45
-93 59 -2 20 3 89 7 111 2 12 7 75 10 141 4 81 10 125 19 134 8 8 40 20 72 26
61 12 113 6 164 -20z"/>
</g>
</svg>
