<?xml version="1.0" standalone="no"?>
<!DOCTYPE svg PUBLIC "-//W3C//DTD SVG 20010904//EN"
 "http://www.w3.org/TR/2001/REC-SVG-20010904/DTD/svg10.dtd">
<svg version="1.0" xmlns="http://www.w3.org/2000/svg"
 width="512.000000pt" height="512.000000pt" viewBox="0 0 512.000000 512.000000"
 preserveAspectRatio="xMidYMid meet">
<metadata>
Created by potrace 1.14, written by Peter Selinger 2001-2017
</metadata>
<g transform="translate(0.000000,512.000000) scale(0.100000,-0.100000)"
fill="#000000" stroke="none">
<path d="M3840 4062 c-48 -30 -80 -65 -91 -101 -6 -20 -29 -66 -50 -103 -22
-36 -39 -72 -39 -78 0 -6 -13 -30 -29 -53 -15 -23 -32 -56 -35 -74 -4 -18 -15
-42 -25 -55 -17 -21 -84 -150 -133 -254 -24 -51 -44 -59 -133 -57 -153 3 -174
3 -197 -6 -13 -5 -31 -5 -39 -1 -8 5 -125 9 -259 9 -135 1 -256 1 -270 2 -14
0 -113 0 -220 -1 -107 0 -235 -1 -285 -1 -49 0 -173 0 -275 -1 -272 0 -259 -2
-283 28 -12 14 -35 40 -50 57 -16 18 -35 45 -44 61 -21 40 -120 173 -136 183
-7 4 -22 22 -33 40 -21 35 -99 140 -157 211 -20 26 -37 51 -37 57 -1 18 -74
92 -107 109 -32 16 -33 15 -78 -16 -25 -17 -45 -37 -45 -42 0 -6 -3 -40 -5
-76 -3 -36 -7 -110 -10 -165 -6 -103 -8 -118 -19 -195 -5 -38 -16 -211 -20
-315 -1 -16 -4 -35 -8 -40 -4 -6 -3 -17 2 -25 5 -7 4 -25 -2 -39 -5 -14 -10
-44 -10 -65 1 -22 -2 -44 -4 -48 -3 -5 -8 -57 -10 -115 -3 -59 -7 -110 -10
-115 -7 -11 -17 -104 -18 -168 -1 -30 -5 -58 -9 -61 -5 -3 -10 -37 -12 -75 -4
-87 -15 -162 -26 -193 -5 -13 -7 -38 -4 -55 4 -17 2 -44 -4 -59 -11 -29 -19
-30 -116 -12 -11 2 -54 8 -95 14 -41 6 -84 13 -96 17 -12 3 -25 -1 -33 -10 -8
-9 -18 -16 -23 -16 -24 0 -41 -33 -39 -78 2 -52 0 -49 26 -54 11 -1 23 -7 26
-12 7 -9 37 -15 209 -42 58 -9 108 -21 112 -27 3 -6 2 -21 -3 -34 -5 -12 -6
-23 -3 -23 2 0 -2 -13 -11 -29 -9 -18 -11 -32 -5 -36 12 -7 -5 -56 -26 -72
-11 -8 -24 -9 -41 -2 -14 5 -35 6 -47 2 -11 -4 -31 -6 -44 -4 -28 3 -92 -38
-93 -59 0 -8 -2 -27 -4 -42 -2 -17 2 -29 11 -32 9 -3 12 -11 8 -17 -4 -7 -3
-9 3 -6 5 3 26 -2 45 -13 20 -10 37 -18 39 -16 2 2 26 6 52 10 l49 6 -5 -53
c-7 -61 -15 -121 -21 -157 -3 -14 -10 -52 -15 -85 -6 -33 -15 -75 -21 -94 -5
-19 -7 -38 -4 -42 3 -5 -2 -21 -9 -36 -8 -15 -14 -41 -12 -58 1 -16 -3 -43 -8
-60 -10 -32 -16 -60 -40 -190 -9 -44 -19 -91 -24 -105 -5 -14 -8 -36 -7 -49 1
-14 -5 -31 -13 -39 -7 -8 -13 -28 -11 -45 1 -18 -4 -42 -10 -54 -7 -12 -12
-32 -11 -45 0 -13 -7 -50 -16 -83 -9 -33 -17 -76 -18 -95 -1 -19 -6 -40 -10
-47 -6 -10 -15 -48 -33 -143 -5 -25 -9 -43 -20 -80 -5 -20 -1 -20 2114 -20
l2119 0 -4 328 c-4 370 -4 368 -4 385 1 6 -1 59 -4 117 -7 152 -15 333 -15
348 0 6 0 18 0 25 1 26 -9 245 -14 294 -7 76 4 85 86 75 37 -5 78 -7 90 -4 13
2 56 3 96 3 54 -1 83 4 116 20 43 20 45 23 44 62 -1 54 -42 97 -96 97 -21 0
-46 1 -57 1 -11 0 -29 0 -40 0 -50 -3 -242 6 -252 12 -11 7 -24 122 -16 143 3
8 9 14 13 14 5 0 21 5 37 12 15 6 42 12 58 13 17 2 46 5 65 9 19 3 69 11 110
17 41 6 84 13 95 15 11 3 38 8 60 11 22 3 49 10 60 16 11 6 26 12 33 13 19 3
19 3 26 56 7 47 7 47 -36 78 -32 24 -49 29 -68 24 -14 -3 -41 -8 -60 -11 -19
-3 -62 -9 -95 -14 -33 -5 -78 -12 -100 -15 -22 -3 -53 -10 -70 -15 -16 -6 -58
-13 -92 -16 l-63 -6 -2 34 c-2 55 -15 155 -25 194 -2 11 -4 31 -4 45 1 21 -19
158 -34 235 -7 34 -24 136 -39 230 -8 50 -22 124 -31 165 -45 202 -57 260 -70
323 -8 38 -19 83 -24 100 -6 18 -18 64 -27 102 -16 72 -57 216 -76 270 -5 17
-21 65 -34 108 -26 87 -53 131 -92 151 -23 12 -30 12 -52 -2z"/>
</g>
</svg>
