<?xml version="1.0" standalone="no"?>
<!DOCTYPE svg PUBLIC "-//W3C//DTD SVG 20010904//EN"
 "http://www.w3.org/TR/2001/REC-SVG-20010904/DTD/svg10.dtd">
<svg version="1.0" xmlns="http://www.w3.org/2000/svg"
 width="384.000000pt" height="384.000000pt" viewBox="0 0 384.000000 384.000000"
 preserveAspectRatio="xMidYMid meet">
<metadata>
Created by potrace 1.14, written by Peter Selinger 2001-2017
</metadata>
<g transform="translate(0.000000,384.000000) scale(0.100000,-0.100000)"
fill="#000000" stroke="none">
<path d="M1790 3834 c-385 -44 -625 -124 -915 -307 -136 -86 -181 -127 -140
-127 45 0 286 -157 385 -250 70 -66 94 -74 124 -41 16 17 16 22 2 56 -9 21
-16 39 -16 40 0 2 12 5 28 8 15 3 54 10 87 17 131 27 394 28 510 3 11 -2 36
-6 55 -10 101 -16 257 -77 345 -136 52 -34 83 -38 101 -11 12 18 11 24 -11 54
-14 19 -25 37 -25 40 0 3 32 22 70 43 39 20 70 35 70 33 0 -3 24 5 53 18 64
28 91 39 97 40 41 9 107 31 115 37 5 5 18 9 28 9 18 0 19 -5 13 -77 -7 -74
-36 -220 -55 -273 -18 -49 -22 -65 -19 -66 2 0 -4 -9 -12 -18 -8 -10 -15 -27
-17 -38 -2 -11 -13 -34 -26 -51 -53 -75 -52 -96 16 -196 21 -29 37 -59 37 -67
0 -8 5 -14 10 -14 6 0 10 -8 10 -19 0 -10 9 -39 20 -63 11 -25 22 -63 25 -84
4 -21 10 -55 15 -74 21 -82 29 -304 15 -370 -7 -32 -18 -38 -88 -46 -29 -3
-76 -15 -106 -25 -30 -10 -58 -16 -62 -13 -5 3 -9 0 -9 -6 0 -6 -4 -9 -9 -6
-4 3 -19 -3 -31 -14 -13 -11 -27 -20 -32 -20 -4 0 -8 -11 -8 -24 0 -21 4 -24
43 -22 23 1 47 4 52 8 10 6 110 26 169 34 15 2 36 6 47 9 15 5 17 2 13 -17 -4
-13 -8 -35 -11 -51 -3 -15 -10 -27 -17 -28 -6 0 -40 -2 -76 -5 -98 -6 -140
-13 -162 -28 -20 -14 -20 -14 3 -27 20 -10 58 -14 201 -18 15 -1 15 -5 -2 -48
-44 -115 -71 -163 -160 -282 -79 -107 -152 -171 -297 -262 -132 -82 -402 -166
-593 -184 -131 -12 -139 -11 -185 33 -49 47 -154 120 -218 152 -26 13 -52 29
-58 37 -6 7 -17 13 -24 13 -8 0 -26 7 -42 15 -62 32 -291 127 -348 145 -22 7
-44 16 -50 20 -15 10 -199 43 -221 38 -28 -5 -29 -40 -2 -64 13 -12 50 -31 83
-44 33 -12 74 -28 90 -35 94 -40 217 -86 244 -91 17 -4 31 -10 31 -15 0 -5 6
-9 13 -9 19 0 237 -108 262 -130 11 -9 40 -28 65 -42 61 -35 131 -98 175 -158
46 -62 42 -84 -8 -41 -28 25 -44 32 -69 29 -25 -2 -34 -8 -36 -26 -2 -12 1
-22 7 -22 13 0 78 -64 108 -106 21 -30 17 -54 -10 -54 -10 0 -57 47 -57 56 0
11 -45 43 -60 44 -9 0 -21 5 -27 11 -6 6 -20 8 -32 4 -27 -8 -29 -51 -3 -59
10 -4 33 -22 52 -41 l34 -35 -40 -1 c-98 -2 -217 2 -225 7 -5 3 -31 7 -57 10
-26 2 -61 9 -78 14 -17 6 -48 13 -70 15 -21 3 -48 8 -59 12 -11 3 -29 7 -40 9
-19 3 -61 13 -214 50 -35 8 -65 13 -67 11 -8 -8 161 -161 258 -233 245 -183
539 -305 863 -360 137 -24 433 -24 570 0 420 71 782 254 1069 542 288 287 471
649 542 1069 12 69 17 157 17 285 0 272 -42 487 -143 733 -252 614 -813 1054
-1480 1162 -94 15 -353 27 -420 19z m826 -2709 c64 -36 104 -66 133 -99 13
-15 31 -34 38 -41 23 -24 14 -26 -16 -4 -15 11 -44 21 -62 22 -27 2 -35 -2
-37 -19 -2 -15 9 -28 40 -48 24 -15 54 -42 67 -58 24 -30 24 -31 5 -45 -28
-20 -56 -12 -79 23 -38 59 -141 114 -159 85 -11 -17 9 -45 58 -82 25 -19 46
-36 46 -40 0 -3 -39 -4 -87 -2 -98 3 -289 37 -342 60 l-34 15 62 29 c97 45
179 104 273 196 18 17 37 32 41 32 5 1 28 -10 53 -24z"/>
<path d="M539 3253 c-47 -49 -167 -193 -179 -214 -8 -14 0 -19 55 -33 35 -9
73 -16 83 -16 13 0 24 -13 36 -43 9 -23 16 -48 16 -56 0 -7 7 -19 15 -27 8 -9
15 -24 15 -34 0 -27 57 -80 86 -80 17 0 25 7 30 25 7 26 -3 93 -15 110 -9 12
-48 120 -56 155 -6 30 -33 160 -43 213 l-7 38 -36 -38z"/>
<path d="M1345 2301 c-94 -23 -137 -119 -96 -212 19 -43 61 -93 61 -73 0 5 5
1 11 -9 9 -15 21 -18 62 -16 87 4 133 34 159 104 19 48 16 77 -14 132 -36 68
-100 94 -183 74z"/>
<path d="M2505 2301 c-68 -16 -99 -53 -111 -131 -5 -29 -1 -50 15 -83 21 -43
61 -89 61 -71 0 5 5 1 11 -9 19 -32 133 -18 182 23 50 41 62 135 26 198 -39
68 -102 93 -184 73z"/>
<path d="M2019 2116 c-2 -2 -50 -6 -106 -8 -114 -5 -133 -14 -133 -62 1 -41
22 -65 97 -111 87 -53 90 -70 16 -95 -48 -15 -55 -36 -22 -66 18 -16 36 -19
119 -18 102 0 130 10 130 44 0 21 -40 50 -69 50 -49 0 -19 60 48 94 41 21 91
83 91 111 0 34 -35 54 -107 59 -33 3 -62 3 -64 2z"/>
<path d="M4 1930 c0 -63 1 -89 3 -57 2 31 2 83 0 115 -2 31 -3 5 -3 -58z"/>
<path d="M620 1945 c-19 -7 -36 -19 -38 -27 -3 -16 74 -32 208 -43 138 -11
465 -52 525 -65 41 -9 142 -22 184 -24 13 -1 28 7 34 16 15 22 -24 54 -78 64
-22 4 -42 8 -45 9 -23 5 -127 18 -133 17 -4 -1 -38 5 -75 13 -37 8 -96 17
-132 19 -36 2 -72 6 -80 10 -45 18 -326 27 -370 11z"/>
<path d="M1127 1714 c-2 -3 -28 -7 -58 -10 -62 -6 -143 -42 -147 -65 -2 -14
10 -15 90 -13 134 4 255 14 327 29 33 6 52 27 42 44 -7 10 -40 14 -129 16 -67
2 -123 1 -125 -1z"/>
</g>
</svg>
