<?xml version="1.0" standalone="no"?>
<!DOCTYPE svg PUBLIC "-//W3C//DTD SVG 20010904//EN"
 "http://www.w3.org/TR/2001/REC-SVG-20010904/DTD/svg10.dtd">
<svg version="1.0" xmlns="http://www.w3.org/2000/svg"
 width="767.000000pt" height="767.000000pt" viewBox="0 0 767.000000 767.000000"
 preserveAspectRatio="xMidYMid meet">
<metadata>
Created by potrace 1.11, written by Peter Selinger 2001-2013
</metadata>
<g transform="translate(0.000000,767.000000) scale(0.100000,-0.100000)"
fill="#000000" stroke="none">
<path d="M3085 7213 c-78 -12 -139 -29 -193 -54 -35 -16 -65 -29 -68 -29 -14
0 -146 -106 -182 -147 -92 -105 -137 -208 -201 -453 -22 -85 -59 -222 -81
-305 -22 -82 -42 -157 -44 -165 -2 -8 -14 -52 -26 -96 l-22 -81 -458 -1 c-251
0 -477 -3 -501 -7 -254 -39 -471 -221 -554 -465 -109 -322 34 -679 335 -837
57 -29 114 -51 153 -58 12 -3 43 -9 69 -13 26 -5 164 -9 307 -9 144 0 264 -2
267 -6 4 -3 2 -23 -4 -44 -5 -21 -82 -308 -171 -638 -88 -330 -164 -606 -169
-614 -7 -13 -80 -15 -468 -17 -252 -1 -473 -4 -490 -7 -53 -10 -157 -47 -216
-79 -113 -60 -217 -168 -280 -291 -196 -381 -6 -840 402 -976 95 -31 165 -37
437 -36 213 0 242 -1 238 -15 -28 -92 -120 -452 -130 -508 -23 -134 -4 -279
53 -399 96 -203 238 -321 467 -390 56 -17 219 -24 274 -12 20 4 48 10 63 13
89 16 247 110 326 194 96 103 150 210 202 402 16 58 62 232 104 387 42 155 76
289 76 297 0 8 6 18 13 23 6 4 301 8 654 8 568 0 642 -2 638 -15 -44 -150
-128 -484 -134 -536 -38 -314 135 -608 431 -730 140 -57 322 -66 458 -22 198
64 374 228 444 413 14 38 108 373 130 465 5 20 105 391 111 410 4 13 69 15
502 15 506 1 533 3 649 41 252 81 446 336 462 606 21 358 -211 659 -563 731
-52 10 -147 14 -371 13 -296 -1 -301 -1 -296 19 4 19 81 308 102 385 23 84 60
225 94 355 21 77 41 151 46 165 5 14 11 36 14 50 2 14 24 96 47 183 41 151 43
157 68 158 14 0 244 1 511 3 474 3 487 3 555 26 259 84 421 258 489 523 17 68
15 235 -4 312 -6 28 -33 93 -58 145 -86 176 -252 310 -449 361 -70 18 -110 20
-385 21 l-308 0 4 22 c5 21 13 51 63 236 67 249 75 295 75 390 -1 146 -62 313
-157 433 -76 95 -215 187 -340 224 -69 21 -89 24 -179 27 -193 8 -404 -83
-530 -227 -93 -107 -139 -202 -187 -387 -14 -58 -63 -241 -108 -407 -44 -166
-81 -304 -81 -306 0 -2 -292 -5 -650 -5 -357 0 -650 2 -650 5 0 2 29 113 65
246 76 286 77 291 77 387 -1 128 -23 216 -85 334 -92 175 -295 321 -487 351
-50 8 -164 13 -195 8z m1545 -2728 c0 -9 -99 -389 -125 -480 -8 -27 -56 -203
-105 -390 -50 -187 -97 -362 -105 -390 l-14 -50 -646 0 c-392 0 -645 4 -645 9
0 5 48 188 106 405 58 218 132 497 165 621 33 124 64 239 69 255 l10 30 645 0
c406 0 645 -4 645 -10z"/>
</g>
</svg>
