<?xml version="1.0" standalone="no"?>
<!DOCTYPE svg PUBLIC "-//W3C//DTD SVG 20010904//EN"
 "http://www.w3.org/TR/2001/REC-SVG-20010904/DTD/svg10.dtd">
<svg version="1.0" xmlns="http://www.w3.org/2000/svg"
 width="800.000000pt" height="800.000000pt" viewBox="0 0 800.000000 800.000000"
 preserveAspectRatio="xMidYMid meet">
<metadata>
Created by potrace 1.14, written by Peter Selinger 2001-2017
</metadata>
<g transform="translate(0.000000,800.000000) scale(0.100000,-0.100000)"
fill="#000000" stroke="none">
<path d="M3789 7256 c-2 -2 -38 -7 -79 -10 -107 -9 -186 -19 -250 -31 -30 -6
-135 -25 -170 -31 -14 -3 -34 -8 -45 -11 -22 -7 -30 -10 -60 -16 -100 -23
-308 -92 -402 -133 -17 -8 -33 -14 -36 -14 -2 0 -40 -17 -83 -37 -44 -20 -81
-37 -84 -37 -5 -1 -215 -115 -241 -131 -10 -5 -40 -23 -68 -40 -28 -16 -51
-33 -51 -37 0 -5 -5 -8 -10 -8 -10 0 -184 -122 -231 -162 -15 -13 -49 -41 -75
-63 -166 -138 -371 -351 -489 -510 -16 -22 -33 -42 -36 -45 -3 -3 -16 -21 -30
-41 -17 -25 -30 -35 -44 -32 -129 24 -291 23 -436 -2 -50 -9 -164 -47 -227
-76 -34 -16 -65 -28 -69 -28 -3 0 -9 -3 -12 -8 -3 -5 -25 -20 -48 -33 -24 -13
-43 -27 -43 -32 0 -4 -5 -8 -10 -8 -13 0 -23 -8 -112 -90 -149 -137 -265 -331
-314 -525 -4 -16 -8 -34 -10 -40 -24 -98 -27 -340 -4 -445 60 -280 214 -515
445 -681 50 -36 68 -46 180 -100 115 -56 108 -49 111 -104 1 -27 5 -70 9 -95
3 -25 8 -63 11 -85 2 -22 6 -47 9 -55 2 -8 7 -35 10 -60 4 -24 8 -48 11 -51 2
-4 6 -22 8 -40 3 -19 12 -61 21 -94 9 -33 18 -69 21 -81 2 -12 10 -40 19 -63
8 -23 14 -43 15 -46 0 -3 0 -6 0 -7 0 -3 63 -179 86 -240 7 -20 36 -84 64
-143 27 -59 50 -109 50 -110 0 -4 96 -174 110 -195 6 -8 18 -30 27 -47 9 -18
20 -33 25 -33 4 0 8 -5 8 -11 0 -6 11 -25 25 -43 14 -18 25 -37 25 -41 0 -5 7
-15 15 -24 9 -9 46 -56 83 -106 69 -93 90 -117 182 -218 137 -151 279 -282
405 -377 33 -25 62 -48 65 -51 22 -26 446 -289 467 -289 2 0 47 -21 101 -46
101 -47 104 -49 190 -83 102 -42 319 -108 447 -137 68 -16 105 -24 144 -30 18
-3 43 -8 55 -10 11 -2 41 -7 66 -10 25 -3 58 -7 75 -10 141 -20 533 -26 680
-11 174 17 157 15 258 33 17 3 43 7 57 9 24 3 145 30 185 41 11 3 31 7 45 10
76 16 312 97 439 151 102 43 341 161 351 172 3 3 21 15 40 25 40 22 260 168
287 190 10 8 36 29 58 46 166 128 328 283 485 466 14 16 58 72 98 124 40 52
76 100 80 105 4 6 30 44 56 85 26 41 57 87 67 102 10 15 19 29 19 31 0 3 25
48 55 101 30 53 51 96 48 96 -3 0 1 8 10 18 8 9 16 19 15 22 0 3 16 39 35 80
19 41 38 86 42 100 4 14 11 30 15 35 4 6 19 46 34 90 15 44 29 87 33 95 3 8 7
20 9 25 71 245 109 419 130 601 3 27 7 60 9 74 2 14 3 35 4 48 1 17 12 28 49
43 155 66 268 140 367 238 91 92 115 118 115 130 0 5 4 11 9 13 11 4 81 119
110 183 31 66 49 117 67 190 8 33 17 69 20 80 10 35 13 288 4 340 -25 148 -74
297 -122 367 -10 14 -18 29 -18 33 0 4 -21 37 -47 74 -54 77 -198 223 -263
266 -25 16 -47 32 -50 35 -3 3 -37 23 -77 43 -80 42 -233 95 -297 103 -22 3
-57 9 -77 13 -49 11 -264 6 -319 -7 -36 -9 -46 -8 -52 3 -5 7 -26 36 -48 64
-22 28 -40 55 -40 60 0 5 -4 11 -9 13 -4 2 -32 32 -62 68 -227 276 -597 591
-859 731 -25 13 -47 26 -50 29 -17 16 -207 110 -336 165 -134 57 -356 132
-479 160 -87 20 -151 34 -194 41 -33 6 -52 9 -101 18 -14 3 -50 8 -80 11 -30
3 -68 8 -85 11 -36 6 -531 15 -536 10z m-633 -1081 c38 -2 80 -7 94 -10 14 -3
39 -8 55 -11 101 -18 268 -89 380 -162 102 -67 231 -191 299 -287 14 -20 14
-20 33 2 11 12 28 34 39 49 26 36 133 143 174 174 18 14 39 31 46 38 7 6 15
12 18 12 3 0 24 13 48 29 84 56 261 129 353 145 17 3 41 8 55 11 89 20 287 19
395 0 42 -8 178 -46 218 -62 188 -74 372 -216 502 -388 62 -81 149 -261 179
-367 60 -210 54 -460 -15 -668 -23 -71 -101 -231 -130 -269 -11 -13 -19 -28
-19 -33 0 -6 21 -31 48 -57 125 -125 202 -222 294 -371 52 -83 128 -243 129
-270 1 -3 4 -9 9 -15 8 -10 31 -86 28 -95 -1 -3 4 -15 10 -27 7 -12 14 -37 17
-55 2 -18 7 -44 10 -58 12 -56 15 -77 20 -130 5 -54 8 -138 6 -172 -3 -51
-340 -220 -606 -304 -44 -14 -87 -28 -95 -31 -8 -3 -19 -7 -25 -8 -5 -2 -30
-8 -55 -16 -25 -7 -49 -13 -55 -15 -5 -1 -48 -11 -95 -23 -47 -11 -96 -23
-110 -25 -14 -3 -25 -5 -25 -6 0 -1 -9 -3 -20 -4 -17 -2 -72 -13 -110 -21 -10
-3 -45 -9 -121 -21 -20 -3 -46 -8 -58 -10 -11 -3 -39 -7 -61 -9 -22 -3 -56 -7
-75 -10 -104 -15 -179 -23 -275 -30 -38 -3 -92 -7 -120 -10 -282 -27 -882 -22
-1215 10 -114 11 -134 13 -185 19 -114 14 -141 18 -170 22 -16 3 -46 8 -65 11
-19 3 -44 7 -55 8 -11 2 -22 4 -25 5 -3 1 -8 2 -13 1 -4 -1 -27 3 -52 9 -25 6
-62 13 -83 16 -20 3 -44 7 -52 10 -8 3 -28 8 -45 11 -83 14 -441 113 -476 133
-9 4 -36 14 -60 20 -24 7 -64 21 -89 32 -25 11 -61 27 -80 35 -104 45 -222
109 -293 159 l-44 31 3 68 c3 86 18 213 31 265 3 14 7 30 9 35 1 6 4 21 7 35
14 66 76 233 108 290 4 8 20 38 34 65 35 68 67 121 88 145 9 11 17 23 17 26 0
12 134 174 204 247 42 43 76 81 76 85 0 4 -11 23 -24 42 -81 120 -154 313
-173 459 -9 64 -8 276 2 336 11 73 52 209 87 289 99 226 281 422 503 541 67
36 201 90 248 99 12 3 33 7 47 11 61 13 80 16 165 21 50 4 92 8 94 10 2 2 7 1
11 -1 4 -3 39 -7 76 -10z m-2256 -940 c93 -16 195 -76 272 -160 36 -39 94
-158 104 -215 9 -52 12 -160 5 -175 -3 -5 -7 -21 -8 -35 -7 -55 -75 -172 -135
-231 -32 -32 -66 -59 -74 -59 -8 0 -14 -3 -14 -8 0 -10 -70 -40 -136 -57 -54
-14 -173 -14 -229 0 -16 4 -59 21 -95 38 -106 50 -227 189 -244 280 -2 14 -8
32 -12 39 -19 31 -10 213 13 268 3 8 7 18 7 21 4 28 62 113 108 160 71 72 158
119 253 136 17 3 31 6 32 7 5 5 110 -1 153 -9z m6427 -8 c209 -62 342 -234
348 -450 7 -229 -139 -421 -366 -482 -72 -19 -208 -12 -276 16 -234 93 -352
305 -309 554 20 112 124 254 233 316 106 61 256 80 370 46z m-5615 -2580 c43
-21 84 -37 91 -37 7 0 17 -4 22 -9 16 -15 308 -114 415 -141 25 -6 52 -14 60
-17 8 -3 23 -8 34 -10 10 -2 55 -12 100 -23 82 -19 216 -48 271 -57 17 -3 64
-11 105 -19 41 -8 100 -16 130 -19 30 -3 65 -7 76 -9 58 -11 173 -23 282 -31
41 -3 85 -7 100 -10 138 -25 1008 -25 1209 0 21 3 70 8 108 11 137 11 318 33
405 48 14 3 43 7 65 10 22 4 74 13 115 21 41 8 89 16 105 18 17 3 68 14 115
26 47 11 96 22 110 25 14 2 25 5 25 6 0 1 7 3 15 5 8 2 24 6 35 9 129 31 418
129 530 180 17 8 53 24 80 37 28 12 53 24 57 26 31 16 -104 -294 -156 -357 -7
-8 -17 -27 -24 -42 -6 -16 -16 -28 -22 -28 -5 0 -9 -3 -7 -8 3 -12 -132 -180
-209 -257 -59 -60 -116 -110 -242 -216 -13 -10 -28 -19 -33 -19 -5 0 -9 -3 -9
-7 0 -5 -23 -21 -51 -38 -28 -16 -57 -36 -64 -42 -29 -27 -267 -153 -365 -193
-30 -12 -68 -28 -85 -35 -116 -50 -358 -119 -525 -150 -14 -3 -34 -7 -45 -9
-11 -2 -40 -7 -65 -10 -25 -3 -55 -8 -68 -11 -95 -18 -510 -27 -657 -13 -145
14 -191 19 -215 24 -14 2 -43 7 -65 10 -22 4 -69 13 -105 21 -36 8 -76 17 -90
20 -14 3 -56 14 -94 25 -38 11 -76 21 -85 23 -9 2 -47 15 -86 30 -38 14 -74
28 -80 29 -5 2 -23 9 -40 15 -16 7 -35 14 -41 15 -7 1 -19 8 -28 15 -9 7 -16
11 -16 7 0 -12 -287 141 -381 204 -160 107 -243 175 -377 310 -73 74 -232 270
-232 286 0 3 -13 24 -28 47 -51 76 -144 273 -147 309 0 3 -3 10 -7 14 -5 4 -8
14 -8 21 0 8 3 12 8 10 4 -2 42 -20 84 -40z"/>
<path d="M3188 5375 c-2 -2 -19 -6 -38 -9 -166 -26 -306 -146 -365 -314 -20
-57 -24 -82 -21 -162 5 -134 39 -217 127 -311 41 -44 133 -106 169 -115 8 -2
38 -10 66 -17 65 -18 176 -15 243 8 122 40 222 125 278 236 42 82 47 104 47
219 0 103 -18 169 -69 250 -61 97 -186 182 -300 205 -29 6 -133 13 -137 10z"/>
<path d="M4683 5365 c-140 -26 -281 -133 -335 -255 -40 -91 -43 -107 -43 -210
0 -86 4 -114 22 -152 12 -27 20 -48 17 -48 -10 0 60 -94 97 -131 87 -87 213
-137 334 -133 85 3 114 7 140 21 11 6 23 11 28 12 27 3 100 48 143 89 91 85
142 188 151 302 6 79 6 77 -2 120 -45 259 -293 432 -552 385z"/>
</g>
</svg>
