<?xml version="1.0" standalone="no"?>
<!DOCTYPE svg PUBLIC "-//W3C//DTD SVG 20010904//EN"
 "http://www.w3.org/TR/2001/REC-SVG-20010904/DTD/svg10.dtd">
<svg version="1.0" xmlns="http://www.w3.org/2000/svg"
 width="700.000000pt" height="700.000000pt" viewBox="0 0 700.000000 700.000000"
 preserveAspectRatio="xMidYMid meet">
<metadata>
Created by potrace 1.14, written by Peter Selinger 2001-2017
</metadata>
<g transform="translate(0.000000,700.000000) scale(0.100000,-0.100000)"
fill="#000000" stroke="none">
<path d="M3327 6804 c-1 -1 -47 -4 -102 -8 -140 -9 -223 -17 -335 -33 -114
-15 -315 -52 -385 -70 -33 -8 -70 -17 -82 -19 -97 -18 -485 -148 -602 -201
-105 -49 -316 -152 -366 -180 -453 -254 -858 -628 -1104 -1021 -98 -156 -180
-327 -230 -479 -54 -163 -67 -220 -106 -443 -18 -101 -12 -451 9 -585 3 -19 9
-52 12 -72 11 -72 63 -258 97 -353 57 -157 115 -274 232 -468 139 -231 424
-535 685 -731 41 -31 77 -58 80 -61 3 -3 38 -27 77 -53 40 -27 73 -54 73 -60
0 -7 -12 -55 -26 -107 -13 -52 -27 -103 -29 -114 -2 -10 -27 -86 -56 -169
-126 -369 -302 -720 -526 -1044 -87 -128 -228 -313 -247 -325 -15 -11 9 -10
75 2 30 5 69 12 88 15 19 3 38 8 42 11 5 3 23 7 41 9 18 2 99 23 180 45 710
195 1299 553 1784 1084 l62 67 93 -15 c193 -31 201 -32 300 -41 36 -3 81 -8
100 -11 57 -9 537 -11 639 -3 170 13 346 33 394 44 12 3 35 7 51 9 26 3 90 14
170 30 11 2 38 9 60 14 22 6 51 13 65 16 118 22 390 110 566 181 610 249 1087
604 1427 1062 50 66 102 141 116 166 130 226 173 317 234 492 75 217 107 403
112 650 4 194 -5 298 -40 476 -168 853 -869 1602 -1870 1999 -106 42 -310 113
-362 125 -10 3 -61 16 -113 30 -101 27 -352 79 -433 90 -27 4 -56 8 -65 10
-15 2 -87 10 -187 20 -122 12 -236 18 -403 19 -106 1 -194 1 -195 0z"/>
</g>
</svg>
